<?xml version="1.0" encoding="UTF-8"?>
<svg width="458px" height="371px" viewBox="0 0 458 371" version="1.1" xmlns="http://www.w3.org/2000/svg" xmlns:xlink="http://www.w3.org/1999/xlink">
    <title>Group 4</title>
    <g id="Page-1" stroke="none" stroke-width="1" fill="none" fill-rule="evenodd">
        <g id="Update-Copy-2" transform="translate(-752.000000, -452.000000)" fill="#06b782">
            <g id="Group-4" transform="translate(752.000000, 452.000000)">
                <g id="Group-3-Copy" transform="translate(106.121951, 0.000000)">
                    <path d="M7.50608009,183.458345 L41.1558249,183.458345 C43.1538616,183.458345 44.9600742,182.268835 45.7492658,180.433263 L99.1480457,56.2335988 C99.6908658,54.9710591 99.6900933,53.5407545 99.1459095,52.2788019 L81.2675405,10.8191761 C80.1740836,8.2834685 77.2320644,7.11429334 74.6963568,8.2077503 C73.5061218,8.72100771 72.5617177,9.67642262 72.0622907,10.8725268 L2.89213504,176.531817 C1.82814288,179.080028 3.03134037,182.008298 5.57955187,183.07229 C6.18987421,183.327127 6.84469126,183.458345 7.50608009,183.458345 Z" id="Path-9"></path>
                    <path d="M159.427229,146.492223 L156.48332,146.492223 C154.403373,146.492223 152.54066,147.779864 151.805791,149.725666 L141.401574,177.274184 C140.425932,179.857511 141.729218,182.742627 144.312546,183.718269 C144.877113,183.931488 145.475616,184.04074 146.079103,184.04074 L217.772915,184.04074 C220.534339,184.04074 222.772915,181.802164 222.772915,179.04074 C222.772915,178.344307 222.627427,177.655554 222.345772,177.018617 L151.837412,17.5701327 C150.720624,15.0446139 147.76795,13.9026121 145.242431,15.0194003 C144.108564,15.5207982 143.201412,16.4255676 142.697033,17.5581123 L60.9175718,201.1879 C60.3336096,202.499145 60.3413518,203.998119 60.9388274,205.303261 L78.7686243,244.251155 C79.9180486,246.761989 82.8852737,247.865629 85.3961073,246.716205 C86.5006763,246.210549 87.3833733,245.320052 87.8792917,244.211076 L143.089807,120.749076 C144.217096,118.228227 147.174496,117.098523 149.695345,118.225812 C150.715538,118.682028 151.553481,119.466873 152.075413,120.45506 L162.838374,140.832844 C163.833409,142.716768 163.112822,145.050624 161.228898,146.045659 C160.673638,146.338931 160.05518,146.492223 159.427229,146.492223 Z" id="Path-10"></path>
                </g>
                <g id="Group-2" transform="translate(0.000000, 244.925972)" fill-rule="nonzero">
                    <path d="M4.71265244,41.8502996 C8.2035061,39.7577847 12.5670732,38.0721476 17.8033537,36.7933884 C23.0396341,35.5146293 28.9740854,34.8752497 35.6067073,34.8752497 C45.4974593,34.8752497 52.3918953,37.432768 56.2900152,42.5478046 C60.1881352,47.6628413 62.1371951,54.9285183 62.1371951,64.3448357 C62.1371951,69.8086248 61.9917429,75.1852258 61.7008384,80.4746387 C61.4099339,85.7640515 61.2063008,90.9372136 61.089939,95.9941248 C60.9735772,101.051036 61.0608486,105.933571 61.351753,110.64173 C61.6426575,115.349888 62.4280996,119.796483 63.7080793,123.981513 L46.777439,123.981513 L43.461128,113.344562 L42.7629573,113.344562 C40.9011687,116.715836 38.2830285,119.505856 34.9085366,121.714621 C31.5340447,123.923387 27.2868394,125.02777 22.1669207,125.02777 C15.3015752,125.02777 9.89075203,122.731816 5.93445122,118.139908 C1.97815041,113.548 0,107.415769 0,99.7432141 C0,89.2806392 3.72357724,81.840586 11.1707317,77.4230543 C18.6178862,73.0055227 28.6831809,71.1455094 41.3666159,71.8430144 C41.9484248,65.1004661 41.5120681,60.2179311 40.0575457,57.1954095 C38.6030234,54.1728879 35.4903455,52.661627 30.7195122,52.661627 C27.2286585,52.661627 23.6214431,53.068505 19.8978659,53.8822608 C16.1742886,54.6960166 12.8579776,55.8585249 9.94893293,57.3697858 L4.71265244,41.8502996 Z M29.6722561,107.241393 C32.8140244,107.241393 35.3739837,106.4567 37.3521341,104.887313 C39.3302846,103.317927 40.7848069,101.603227 41.7157012,99.7432141 L41.7157012,85.2699855 C39.0393801,84.921233 36.4794207,84.8631076 34.0358232,85.0956093 C31.5922256,85.3281109 29.4395325,85.8512397 27.5777439,86.6649955 C25.7159553,87.4787513 24.2323425,88.6703224 23.1269055,90.2397086 C22.0214685,91.8090948 21.46875,93.8144217 21.46875,96.2556892 C21.46875,99.859465 22.1960112,102.59136 23.6505335,104.451373 C25.1050559,106.311386 27.1122967,107.241393 29.6722561,107.241393 Z" id="Shape"></path>
                    <path d="M71.8170732,36.6190122 L77.4169207,36.6190122 C78.5214902,36.6190122 79.4169207,35.7235817 79.4169207,34.6190122 L79.4169207,21.7006571 C79.4169207,20.8246269 79.9870312,20.0505526 80.8236292,19.7906819 L97.5942084,14.5812723 C98.6490586,14.2536064 99.7698093,14.8431058 100.097475,15.8979559 C100.15715,16.0900669 100.1875,16.2900816 100.1875,16.4912475 L100.1875,34.6190122 C100.1875,35.7235817 101.082931,36.6190122 102.1875,36.6190122 L115.11814,36.6190122 C116.22271,36.6190122 117.11814,37.5144427 117.11814,38.6190122 L117.11814,53.1028945 C117.11814,54.207464 116.22271,55.1028945 115.11814,55.1028945 L102.1875,55.1028945 C101.082931,55.1028945 100.1875,55.998325 100.1875,57.1028945 L100.1875,93.1169167 L100.1875,93.1169167 C100.1875,98.1157025 100.682038,101.661353 101.671113,103.753868 C102.660188,105.846383 104.434705,106.89264 106.994665,106.89264 C108.740091,106.89264 110.310976,106.718264 111.707317,106.369512 C113.103659,106.020759 114.616362,105.49763 116.245427,104.800125 L118.863567,121.365869 C116.303608,122.644628 113.336382,123.719948 109.96189,124.59183 C106.587398,125.463711 103.038364,125.899651 99.3147866,125.899651 C92.6821646,125.899651 87.7076982,123.981513 84.3913872,120.145235 C81.0750762,116.308958 79.4169207,109.857037 79.4169207,100.789472 L79.4169207,57.1028945 C79.4169207,55.998325 78.5214902,55.1028945 77.4169207,55.1028945 L71.8170732,55.1028945 C70.7125037,55.1028945 69.8170732,54.207464 69.8170732,53.1028945 L69.8170732,38.6190122 C69.8170732,37.5144427 70.7125037,36.6190122 71.8170732,36.6190122 Z" id="Path"></path>
                    <path d="M203.516768,121.807136 L203.516768,73.0636481 L203.516768,73.0636481 C203.516768,65.7398457 202.934959,60.6538718 201.771341,57.8057264 C200.607724,54.957581 198.338669,53.5335083 194.964177,53.5335083 C192.171494,53.5335083 189.873349,54.4344522 188.069741,56.2363401 C186.266133,58.038228 184.898882,60.2179311 183.967988,62.7754495 L183.967988,121.807136 C183.967988,122.911706 183.072557,123.807136 181.967988,123.807136 L165.197409,123.807136 C164.092839,123.807136 163.197409,122.911706 163.197409,121.807136 L163.197409,38.6190122 C163.197409,37.5144427 164.092839,36.6190122 165.197409,36.6190122 L177.694144,36.6190122 C178.611712,36.6190122 179.411577,37.2433837 179.63432,38.1335052 L181.746363,46.5736218 C181.821072,46.8721711 182.089349,47.0815871 182.397104,47.0815871 L182.397104,47.0815871 L182.397104,47.0815871 C184.607978,43.4778113 187.37157,40.4843524 190.687881,38.1012103 C194.004192,35.7180682 198.39685,34.5264972 203.865854,34.5264972 C208.403963,34.5264972 212.09845,35.5146293 214.949314,37.4908934 C217.800178,39.4671576 220.040142,42.9546825 221.669207,47.9534683 C223.880081,43.7684384 226.789126,40.4843524 230.396341,38.1012103 C234.003557,35.7180682 238.250762,34.5264972 243.137957,34.5264972 C246.977896,34.5264972 250.265117,35.0205632 252.999619,36.0086953 C255.734121,36.9968274 257.944995,38.7115272 259.632241,41.1527946 C261.319487,43.5940621 262.570376,46.9362735 263.384909,51.1794289 C264.199441,55.4225843 264.606707,60.7991853 264.606707,67.3092319 L264.606707,121.807136 C264.606707,122.911706 263.711277,123.807136 262.606707,123.807136 L245.836128,123.807136 C244.731559,123.807136 243.836128,122.911706 243.836128,121.807136 L243.836128,70.7967569 L243.836128,70.7967569 C243.836128,64.8679644 243.3125,60.5085582 242.265244,57.7185382 C241.217988,54.9285183 238.890752,53.5335083 235.283537,53.5335083 C232.374492,53.5335083 230.018166,54.3763268 228.214558,56.0619639 C226.41095,57.747601 225.10188,60.0435549 224.287348,62.9498257 L224.287348,121.807136 C224.287348,122.911706 223.391917,123.807136 222.287348,123.807136 L205.516768,123.807136 C204.412199,123.807136 203.516768,122.911706 203.516768,121.807136 Z" id="Path"></path>
                    <path d="M280.664634,36.6190122 L301.435213,36.6190122 L301.435213,123.807136 L280.664634,123.807136 L280.664634,36.6190122 Z M278.221037,12.0319611 C278.221037,8.54443618 279.326474,5.66722808 281.537348,3.40033685 C283.748222,1.13344562 286.88999,0 290.962652,0 C295.035315,0 298.293445,1.10438291 300.737043,3.31314872 C303.18064,5.52191454 304.402439,8.42818534 304.402439,12.0319611 C304.402439,15.6357369 303.18064,18.4838823 300.737043,20.5763973 C298.293445,22.6689123 295.035315,23.7151698 290.962652,23.7151698 C286.88999,23.7151698 283.748222,22.6398496 281.537348,20.4892092 C279.326474,18.3385688 278.221037,15.5194861 278.221037,12.0319611 Z" id="Shape"></path>
                    <path d="M361.477896,121.807136 L361.477896,70.7967569 L361.477896,70.7967569 C361.477896,64.4029611 360.721545,59.9273041 359.208841,57.3697858 C357.696138,54.8122674 355.136179,53.5335083 351.528963,53.5335083 C348.503557,53.5335083 345.885417,54.4635149 343.674543,56.3235283 C341.463669,58.1835416 339.892785,60.5085582 338.96189,63.2985782 L338.96189,121.807136 C338.96189,122.911706 338.06646,123.807136 336.96189,123.807136 L320.191311,123.807136 C319.086741,123.807136 318.191311,122.911706 318.191311,121.807136 L318.191311,38.6190122 C318.191311,37.5144427 319.086741,36.6190122 320.191311,36.6190122 L333.198538,36.6190122 C334.122177,36.6190122 334.925682,37.2515022 335.1426,38.1493079 L337.093488,46.2238518 C337.165636,46.5224658 337.432885,46.7328346 337.740091,46.7328346 L337.740091,46.7328346 L337.740091,46.7328346 C339.834604,43.3615605 342.685467,40.4843524 346.292683,38.1012103 C349.899898,35.7180682 354.612551,34.5264972 360.43064,34.5264972 C363.921494,34.5264972 367.034172,35.0496259 369.768674,36.0958834 C372.503176,37.1421409 374.801321,38.8568407 376.66311,41.2399828 C378.524898,43.6231248 379.92124,46.8200227 380.852134,50.8306764 C381.783028,54.8413301 382.248476,59.8110532 382.248476,65.7398457 L382.248476,121.807136 C382.248476,122.911706 381.353045,123.807136 380.248476,123.807136 L363.477896,123.807136 C362.373327,123.807136 361.477896,122.911706 361.477896,121.807136 Z" id="Path"></path>
                    <path d="M455.556402,117.355215 C452.647358,119.912734 448.691057,122.005249 443.6875,123.63276 C438.683943,125.260272 433.447663,126.074028 427.978659,126.074028 C421.927846,126.074028 416.720655,125.02777 412.357088,122.935255 C407.993521,120.84274 404.415396,117.820219 401.622713,113.86769 C398.83003,109.915162 396.764609,105.119815 395.426448,99.4816498 C394.088288,93.8434844 393.419207,87.4206259 393.419207,80.2130743 C393.419207,64.5192119 396.531885,52.9231914 402.757241,45.4250127 C408.982597,37.926834 417.622459,34.1777447 428.676829,34.1777447 C432.400407,34.1777447 436.007622,34.7299362 439.498476,35.8343191 C442.989329,36.938702 446.102007,38.7987153 448.836509,41.414359 C451.571011,44.0300027 453.781885,47.5175277 455.469131,51.8769339 C457.156377,56.2363401 458,61.729192 458,68.3554894 C458,70.9130077 457.854548,73.6449023 457.563643,76.5511731 C457.272739,79.4574439 456.836382,82.5962164 456.254573,85.9674905 L413.840701,85.9674905 C414.073425,93.1750421 415.586128,98.6969566 418.378811,102.533234 C421.171494,106.369512 425.651423,108.28765 431.818598,108.28765 C435.542175,108.28765 438.945757,107.706396 442.029345,106.543888 C445.112932,105.381379 447.469258,104.160746 449.098323,102.881987 L455.556402,117.355215 Z M428.327744,51.964122 C423.905996,51.964122 420.589685,53.7369472 418.378811,57.2825976 C416.167937,60.828248 414.887957,65.7979711 414.538872,72.1917669 L438.625762,72.1917669 C438.974848,65.5654694 438.276677,60.5376209 436.53125,57.1082214 C434.785823,53.6788218 432.051321,51.964122 428.327744,51.964122 Z" id="Shape"></path>
                </g>
            </g>
        </g>
    </g>
</svg>