<?xml version="1.0" encoding="UTF-8"?>
<svg width="580px" height="254px" viewBox="0 0 580 254" version="1.1" xmlns="http://www.w3.org/2000/svg" xmlns:xlink="http://www.w3.org/1999/xlink">
    <title>Group 6</title>
    <g id="Page-1" stroke="none" stroke-width="1" fill="none" fill-rule="evenodd">
        <g id="Update-Copy-2" transform="translate(-690.000000, -143.000000)" fill="#605cb8">
            <g id="Group-5" transform="translate(690.000000, 143.000000)">
                <g id="Group-3">
                    <path d="M7.50764043,183.242857 L41.1282685,183.242857 C43.1259497,183.242857 44.9319123,182.053766 45.7213228,180.218674 L99.0836262,56.1707712 C99.6269626,54.9077123 99.6261893,53.4766457 99.0814883,52.2141747 L81.2184467,10.8124281 C80.1244924,8.27693506 77.182244,7.10833698 74.6467509,8.20229127 C73.4572327,8.71551632 72.5133526,9.67040521 72.0139549,10.8657945 L2.89406496,176.315444 C1.82958408,178.863451 3.03221992,181.791952 5.58022729,182.856433 C6.19079861,183.111511 6.84592878,183.242857 7.50764043,183.242857 Z" id="Path-9"></path>
                    <path d="M159.325874,146.320155 L156.385375,146.320155 C154.305755,146.320155 152.443262,147.607399 151.708161,149.552765 L141.314998,177.057178 C140.338895,179.640332 141.641667,182.52568 144.224821,183.501783 C144.789629,183.715208 145.388424,183.824569 145.992211,183.824569 L217.627911,183.824569 C220.389335,183.824569 222.627911,181.585993 222.627911,178.824569 C222.627911,178.127799 222.482282,177.438722 222.200364,176.801532 L151.743377,17.5551337 C150.626085,15.0298377 147.673184,13.8884251 145.147888,15.0057172 C144.014751,15.5070622 143.108135,16.4112964 142.60381,17.54311 L60.8803369,200.948237 C60.2958247,202.260009 60.3035737,203.75978 60.9016097,205.065442 L78.7160534,243.958816 C79.8659902,246.469415 82.8334406,247.572449 85.3440394,246.422512 C86.4478709,245.916921 87.3300289,245.026965 87.8258854,243.918726 L142.996546,120.612369 C144.124342,118.091747 147.081969,116.962638 149.602592,118.090434 C150.622029,118.546558 151.459409,119.330858 151.981221,120.318286 L162.733591,140.66504 C163.728161,142.54707 163.008733,144.879016 161.126703,145.873586 C160.571745,146.166858 159.953558,146.320155 159.325874,146.320155 Z" id="Path-10"></path>
                </g>
                <path d="M229.82236,90.7142857 L235.416105,90.7142857 C236.520674,90.7142857 237.416105,89.8188552 237.416105,88.7142857 L237.416105,75.8154193 C237.416105,74.9392763 237.98636,74.1651299 238.823105,73.9053536 L255.58048,68.7028523 C256.63538,68.3753476 257.75604,68.9650181 258.083545,70.0199183 C258.14316,70.2119406 258.173479,70.4118546 258.173479,70.6129181 L258.173479,88.7142857 C258.173479,89.8188552 259.06891,90.7142857 260.173479,90.7142857 L273.093356,90.7142857 C274.197926,90.7142857 275.093356,91.6097162 275.093356,92.7142857 L275.093356,107.176457 C275.093356,108.281027 274.197926,109.176457 273.093356,109.176457 L260.173479,109.176457 C259.06891,109.176457 258.173479,110.071888 258.173479,111.176457 L258.173479,147.145829 L258.173479,147.145829 C258.173479,152.138743 258.667703,155.680229 259.656149,157.770286 C260.644595,159.860343 262.417985,160.905371 264.976316,160.905371 C266.720634,160.905371 268.290519,160.7312 269.685973,160.382857 C271.081427,160.034514 272.593168,159.512 274.221197,158.815314 L276.837673,175.3616 C274.279341,176.638857 271.314002,177.712914 267.941656,178.583771 C264.569309,179.454629 261.022531,179.890057 257.301321,179.890057 C250.672915,179.890057 245.701611,177.974171 242.387409,174.1424 C239.073206,170.310629 237.416105,163.866286 237.416105,154.809371 L237.416105,111.176457 C237.416105,110.071888 236.520674,109.176457 235.416105,109.176457 L229.82236,109.176457 C228.717791,109.176457 227.82236,108.281027 227.82236,107.176457 L227.82236,92.7142857 C227.82236,91.6097162 228.717791,90.7142857 229.82236,90.7142857 Z" id="Path" fill-rule="nonzero"></path>
                <path d="M325.678554,175.8 L325.678554,127.116114 L325.678554,127.116114 C325.678554,119.800914 325.097115,114.720914 323.934237,111.876114 C322.771359,109.031314 320.503747,107.608914 317.1314,107.608914 C314.340493,107.608914 312.043808,108.5088 310.241347,110.308571 C308.438886,112.108343 307.072504,114.285486 306.142202,116.84 L306.142202,175.8 C306.142202,176.904569 305.246771,177.8 304.142202,177.8 L287.384827,177.8 C286.280258,177.8 285.384827,176.904569 285.384827,175.8 L285.384827,92.7142857 C285.384827,91.6097162 286.280258,90.7142857 287.384827,90.7142857 L299.871559,90.7142857 C300.789032,90.7142857 301.58884,91.3385309 301.811673,92.2285323 L303.921925,100.656945 C303.996626,100.955304 304.264749,101.164571 304.572316,101.164571 L304.572316,101.164571 L304.572316,101.164571 C306.781785,97.5650286 309.54362,94.5750857 312.857823,92.1947429 C316.172026,89.8144 320.561891,88.6242286 326.027418,88.6242286 C330.562643,88.6242286 334.254781,89.6112 337.103832,91.5851429 C339.952883,93.5590857 342.191424,97.0425143 343.819453,102.035429 C346.028922,97.8553143 348.936117,94.5750857 352.541039,92.1947429 C356.145961,89.8144 360.390466,88.6242286 365.274555,88.6242286 C369.112052,88.6242286 372.397183,89.1177143 375.129947,90.1046857 C377.86271,91.0916571 380.072179,92.8043429 381.758352,95.2427429 C383.444525,97.6811429 384.694619,101.019429 385.508634,105.2576 C386.322649,109.495771 386.729656,114.866057 386.729656,121.368457 L386.729656,175.8 C386.729656,176.904569 385.834225,177.8 384.729656,177.8 L367.972281,177.8 C366.867712,177.8 365.972281,176.904569 365.972281,175.8 L365.972281,124.851886 L365.972281,124.851886 C365.972281,118.930057 365.448986,114.575771 364.402396,111.789029 C363.355806,109.002286 361.030049,107.608914 357.425127,107.608914 C354.517932,107.608914 352.163104,108.450743 350.360643,110.1344 C348.558181,111.818057 347.249944,114.111314 346.435929,117.014171 L346.435929,175.8 C346.435929,176.904569 345.540498,177.8 344.435929,177.8 L327.678554,177.8 C326.573985,177.8 325.678554,176.904569 325.678554,175.8 Z" id="Path" fill-rule="nonzero"></path>
                <path d="M402.777374,90.7142857 L423.534749,90.7142857 L423.534749,177.8 L402.777374,177.8 L402.777374,90.7142857 Z M400.33533,66.1561143 C400.33533,62.6726857 401.440064,59.7988571 403.649533,57.5346286 C405.859001,55.2704 408.998772,54.1382857 413.068845,54.1382857 C417.138919,54.1382857 420.394978,55.2413714 422.837022,57.4475429 C425.279066,59.6537143 426.500088,62.5565714 426.500088,66.1561143 C426.500088,69.7556571 425.279066,72.6004571 422.837022,74.6905143 C420.394978,76.7805714 417.138919,77.8256 413.068845,77.8256 C408.998772,77.8256 405.859001,76.7515429 403.649533,74.6034286 C401.440064,72.4553143 400.33533,69.6395429 400.33533,66.1561143 Z" id="Shape" fill-rule="nonzero"></path>
                <path d="M483.53926,175.8 L483.53926,124.851886 L483.53926,124.851886 C483.53926,118.4656 482.783389,113.9952 481.271647,111.440686 C479.759906,108.886171 477.201574,107.608914 473.596652,107.608914 C470.573169,107.608914 467.956693,108.537829 465.747224,110.395657 C463.537756,112.253486 461.96787,114.575771 461.037568,117.362514 L461.037568,175.8 C461.037568,176.904569 460.142137,177.8 459.037568,177.8 L442.280193,177.8 C441.175624,177.8 440.280193,176.904569 440.280193,175.8 L440.280193,92.7142857 C440.280193,91.6097162 441.175624,90.7142857 442.280193,90.7142857 L455.277078,90.7142857 C456.200625,90.7142857 457.004075,91.3466524 457.221083,92.244342 L459.170291,100.307585 C459.242432,100.606008 459.509527,100.816229 459.816546,100.816229 L459.816546,100.816229 L459.816546,100.816229 C461.909727,97.4489143 464.758778,94.5750857 468.3637,92.1947429 C471.968622,89.8144 476.678279,88.6242286 482.492669,88.6242286 C485.981304,88.6242286 489.092003,89.1467429 491.824766,90.1917714 C494.55753,91.2368 496.854214,92.9494857 498.714819,95.3298286 C500.575424,97.7101714 501.970878,100.903314 502.90118,104.909257 C503.831483,108.9152 504.296634,113.879086 504.296634,119.800914 L504.296634,175.8 C504.296634,176.904569 503.401204,177.8 502.296634,177.8 L485.53926,177.8 C484.43469,177.8 483.53926,176.904569 483.53926,175.8 Z" id="Path" fill-rule="nonzero"></path>
                <path d="M577.557956,171.355657 C574.650761,173.910171 570.696975,176.000229 565.696599,177.625829 C560.696223,179.251429 555.463272,180.064229 549.997744,180.064229 C543.950778,180.064229 538.746899,179.0192 534.386106,176.929143 C530.025313,174.839086 526.449462,171.820114 523.658555,167.872229 C520.867647,163.924343 518.803539,159.134629 517.466229,153.503086 C516.128919,147.871543 515.460264,141.456229 515.460264,134.257143 C515.460264,118.581714 518.570963,106.999314 524.792361,99.5099429 C531.013759,92.0205714 539.648129,88.2758857 550.695471,88.2758857 C554.416681,88.2758857 558.021603,88.8274286 561.510238,89.9305143 C564.998872,91.0336 568.109571,92.8914286 570.842335,95.504 C573.575098,98.1165714 575.784567,101.6 577.47074,105.954286 C579.156913,110.308571 580,115.794971 580,122.413486 C580,124.968 579.85464,127.696686 579.563921,130.599543 C579.273201,133.5024 578.837122,136.637486 578.255683,140.0048 L535.868775,140.0048 C536.101351,147.203886 537.613092,152.719314 540.404,156.551086 C543.194907,160.382857 547.671988,162.298743 553.835242,162.298743 C557.556452,162.298743 560.957871,161.718171 564.039498,160.557029 C567.121125,159.395886 569.475953,158.176686 571.103982,156.899429 L577.557956,171.355657 Z M550.346608,106.041371 C545.927671,106.041371 542.613468,107.812114 540.404,111.3536 C538.194531,114.895086 536.915366,119.858971 536.566502,126.245257 L560.638079,126.245257 C560.986943,119.626743 560.289216,114.6048 558.544899,111.179429 C556.800581,107.754057 554.067818,106.041371 550.346608,106.041371 Z" id="Shape" fill-rule="nonzero"></path>
            </g>
        </g>
    </g>
</svg>