<?xml version="1.0" encoding="UTF-8"?>
<svg width="316px" height="347px" viewBox="0 0 316 347" version="1.1" xmlns="http://www.w3.org/2000/svg" xmlns:xlink="http://www.w3.org/1999/xlink">
    <title>Combined Shape Copy 5</title>
    <g id="Page-1" stroke="none" stroke-width="1" fill="none" fill-rule="evenodd">
        <g id="Update-Copy-5" transform="translate(-936.000000, -81.000000)" fill="#2C363E">
            <path d="M1141.00505,92.0694427 C1143.53063,90.9527947 1146.48324,92.0949604 1147.59989,94.6205412 L1250.89153,328.240608 C1251.17311,328.877476 1251.31856,329.566138 1251.31856,330.262478 C1251.31856,333.023901 1249.07999,335.262478 1246.31856,335.262478 L1138.30376,335.262478 C1137.70036,335.262478 1137.10193,335.153256 1136.53744,334.940094 C1133.95406,333.96458 1132.65063,331.079529 1133.62614,328.496153 L1149.97808,285.192636 C1150.71288,283.246713 1152.57566,281.958961 1154.65569,281.958961 L1161.0731,281.958961 C1161.88689,281.958961 1162.68837,281.76033 1163.40798,281.380311 C1165.84982,280.090793 1166.78397,277.065926 1165.49445,274.624081 L1147.83794,241.189541 C1147.31597,240.201143 1146.47787,239.416146 1145.45747,238.959905 C1142.93656,237.832757 1139.97922,238.962626 1138.85207,241.483538 L1056.83831,424.910614 C1056.34237,426.019794 1055.45952,426.910442 1054.35475,427.416116 C1051.84385,428.565398 1048.87669,427.461589 1047.72741,424.95069 L1020.09696,364.584925 C1019.49964,363.279927 1019.4919,361.781174 1020.07571,360.470077 L1138.45929,94.6085218 C1138.96368,93.4757736 1139.87098,92.5708553 1141.00505,92.0694427 Z M1040.81792,82.2092704 C1043.35369,81.1159518 1046.29565,82.2852875 1047.38897,84.8210548 L1075.07936,149.044243 C1075.6234,150.306051 1075.62418,151.736144 1075.0815,152.998539 L998.386083,331.410382 C997.596953,333.246089 995.790671,334.435714 993.792535,334.435714 L941.501792,334.435714 C940.840493,334.435714 940.185763,334.304532 939.57551,334.049762 C937.027242,332.985906 935.823888,330.057701 936.887744,327.509432 L1038.1835,84.8744012 C1038.68294,83.678098 1039.62749,82.7225367 1040.81792,82.2092704 Z" id="Combined-Shape-Copy-5"></path>
        </g>
    </g>
</svg>