<?xml version="1.0" encoding="UTF-8"?>
<svg width="316px" height="347px" viewBox="0 0 316 347" version="1.1" xmlns="http://www.w3.org/2000/svg" xmlns:xlink="http://www.w3.org/1999/xlink">
    <title>Combined Shape Copy 3</title>
    <g id="Page-1" stroke="none" stroke-width="1" fill="none" fill-rule="evenodd">
        <g id="Update-Copy-5" transform="translate(-562.000000, -471.000000)" fill="#06b782">
            <path d="M767.006979,482.069443 C769.53256,480.952795 772.48517,482.09496 773.601818,484.620541 L876.893457,718.240608 C877.175039,718.877476 877.320489,719.566138 877.320489,720.262478 C877.320489,723.023901 875.081913,725.262478 872.320489,725.262478 L764.305688,725.262478 C763.702283,725.262478 763.103862,725.153256 762.539363,724.940094 C759.955987,723.96458 758.652557,721.079529 759.628071,718.496153 L775.980005,675.192636 C776.71481,673.246713 778.577585,671.958961 780.657622,671.958961 L787.075027,671.958961 C787.888813,671.958961 788.6903,671.76033 789.409907,671.380311 C791.851751,670.090793 792.785896,667.065926 791.496377,664.624081 L773.839863,631.189541 C773.317898,630.201143 772.479797,629.416146 771.459395,628.959905 C768.938483,627.832757 765.981145,628.962626 764.853997,631.483538 L682.840234,814.910614 C682.344298,816.019794 681.461451,816.910442 680.356677,817.416116 C677.845778,818.565398 674.878616,817.461589 673.729334,814.95069 L646.098886,754.584925 C645.501566,753.279927 645.493826,751.781174 646.077635,750.470077 L764.461214,484.608522 C764.965607,483.475774 765.872908,482.570855 767.006979,482.069443 Z M666.819852,472.20927 C669.355619,471.115952 672.297574,472.285288 673.390893,474.821055 L701.08129,539.044243 C701.62533,540.306051 701.626102,541.736144 701.083426,542.998539 L624.388011,721.410382 C623.59888,723.246089 621.792598,724.435714 619.794462,724.435714 L567.503719,724.435714 C566.84242,724.435714 566.18769,724.304532 565.577437,724.049762 C563.029169,722.985906 561.825815,720.057701 562.889671,717.509432 L664.185432,474.874401 C664.684867,473.678098 665.629417,472.722537 666.819852,472.20927 Z" id="Combined-Shape-Copy-3"></path>
        </g>
    </g>
</svg>