<?xml version="1.0" encoding="UTF-8"?>
<svg width="316px" height="347px" viewBox="0 0 316 347" version="1.1" xmlns="http://www.w3.org/2000/svg" xmlns:xlink="http://www.w3.org/1999/xlink">
    <title>Combined Shape Copy 2</title>
    <g id="Page-1" stroke="none" stroke-width="1" fill="none" fill-rule="evenodd">
        <g id="Update-Copy-5" transform="translate(-188.000000, -471.000000)" fill="#009F70">
            <path d="M393.008906,482.069443 C395.534487,480.952795 398.487097,482.09496 399.603745,484.620541 L502.895385,718.240608 C503.176966,718.877476 503.322416,719.566138 503.322416,720.262478 C503.322416,723.023901 501.08384,725.262478 498.322416,725.262478 L390.307615,725.262478 C389.70421,725.262478 389.105789,725.153256 388.54129,724.940094 C385.957914,723.96458 384.654484,721.079529 385.629998,718.496153 L401.981933,675.192636 C402.716737,673.246713 404.579512,671.958961 406.659549,671.958961 L413.076954,671.958961 C413.89074,671.958961 414.692228,671.76033 415.411834,671.380311 C417.853678,670.090793 418.787823,667.065926 417.498304,664.624081 L399.84179,631.189541 C399.319825,630.201143 398.481724,629.416146 397.461322,628.959905 C394.94041,627.832757 391.983073,628.962626 390.855924,631.483538 L308.842161,814.910614 C308.346225,816.019794 307.463379,816.910442 306.358604,817.416116 C303.847705,818.565398 300.880543,817.461589 299.731261,814.95069 L272.100813,754.584925 C271.503493,753.279927 271.495753,751.781174 272.079562,750.470077 L390.463141,484.608522 C390.967534,483.475774 391.874836,482.570855 393.008906,482.069443 Z M292.821779,472.20927 C295.357546,471.115952 298.299501,472.285288 299.39282,474.821055 L327.083217,539.044243 C327.627257,540.306051 327.628029,541.736144 327.085353,542.998539 L250.389938,721.410382 C249.600807,723.246089 247.794525,724.435714 245.796389,724.435714 L193.505646,724.435714 C192.844347,724.435714 192.189617,724.304532 191.579364,724.049762 C189.031096,722.985906 187.827742,720.057701 188.891598,717.509432 L290.187359,474.874401 C290.686794,473.678098 291.631344,472.722537 292.821779,472.20927 Z" id="Combined-Shape-Copy-2"></path>
        </g>
    </g>
</svg>