<?xml version="1.0" encoding="UTF-8"?>
<svg width="316px" height="347px" viewBox="0 0 316 347" version="1.1" xmlns="http://www.w3.org/2000/svg" xmlns:xlink="http://www.w3.org/1999/xlink">
    <title>Combined Shape</title>
    <g id="Page-1" stroke="none" stroke-width="1" fill="none" fill-rule="evenodd">
        <g id="Update-Copy-5" transform="translate(-188.000000, -81.000000)" fill="#CAB0CE">
            <path d="M393.008906,92.0694427 C395.534487,90.9527947 398.487097,92.0949604 399.603745,94.6205412 L502.895385,328.240608 C503.176966,328.877476 503.322416,329.566138 503.322416,330.262478 C503.322416,333.023901 501.08384,335.262478 498.322416,335.262478 L390.307615,335.262478 C389.70421,335.262478 389.105789,335.153256 388.54129,334.940094 C385.957914,333.96458 384.654484,331.079529 385.629998,328.496153 L401.981933,285.192636 C402.716737,283.246713 404.579512,281.958961 406.659549,281.958961 L413.076954,281.958961 C413.89074,281.958961 414.692228,281.76033 415.411834,281.380311 C417.853678,280.090793 418.787823,277.065926 417.498304,274.624081 L399.84179,241.189541 C399.319825,240.201143 398.481724,239.416146 397.461322,238.959905 C394.94041,237.832757 391.983073,238.962626 390.855924,241.483538 L308.842161,424.910614 C308.346225,426.019794 307.463379,426.910442 306.358604,427.416116 C303.847705,428.565398 300.880543,427.461589 299.731261,424.95069 L272.100813,364.584925 C271.503493,363.279927 271.495753,361.781174 272.079562,360.470077 L390.463141,94.6085218 C390.967534,93.4757736 391.874836,92.5708553 393.008906,92.0694427 Z M292.821779,82.2092704 C295.357546,81.1159518 298.299501,82.2852875 299.39282,84.8210548 L327.083217,149.044243 C327.627257,150.306051 327.628029,151.736144 327.085353,152.998539 L250.389938,331.410382 C249.600807,333.246089 247.794525,334.435714 245.796389,334.435714 L193.505646,334.435714 C192.844347,334.435714 192.189617,334.304532 191.579364,334.049762 C189.031096,332.985906 187.827742,330.057701 188.891598,327.509432 L290.187359,84.8744012 C290.686794,83.678098 291.631344,82.7225367 292.821779,82.2092704 Z" id="Combined-Shape"></path>
        </g>
    </g>
</svg>