<?xml version="1.0" encoding="UTF-8"?>
<svg width="316px" height="347px" viewBox="0 0 316 347" version="1.1" xmlns="http://www.w3.org/2000/svg" xmlns:xlink="http://www.w3.org/1999/xlink">
    <title>Combined Shape Copy 4</title>
    <g id="Page-1" stroke="none" stroke-width="1" fill="none" fill-rule="evenodd">
        <g id="Update-Copy-5" transform="translate(-936.000000, -471.000000)" fill="#DBEF98">
            <path d="M1141.00505,482.069443 C1143.53063,480.952795 1146.48324,482.09496 1147.59989,484.620541 L1250.89153,718.240608 C1251.17311,718.877476 1251.31856,719.566138 1251.31856,720.262478 C1251.31856,723.023901 1249.07999,725.262478 1246.31856,725.262478 L1138.30376,725.262478 C1137.70036,725.262478 1137.10193,725.153256 1136.53744,724.940094 C1133.95406,723.96458 1132.65063,721.079529 1133.62614,718.496153 L1149.97808,675.192636 C1150.71288,673.246713 1152.57566,671.958961 1154.65569,671.958961 L1161.0731,671.958961 C1161.88689,671.958961 1162.68837,671.76033 1163.40798,671.380311 C1165.84982,670.090793 1166.78397,667.065926 1165.49445,664.624081 L1147.83794,631.189541 C1147.31597,630.201143 1146.47787,629.416146 1145.45747,628.959905 C1142.93656,627.832757 1139.97922,628.962626 1138.85207,631.483538 L1056.83831,814.910614 C1056.34237,816.019794 1055.45952,816.910442 1054.35475,817.416116 C1051.84385,818.565398 1048.87669,817.461589 1047.72741,814.95069 L1020.09696,754.584925 C1019.49964,753.279927 1019.4919,751.781174 1020.07571,750.470077 L1138.45929,484.608522 C1138.96368,483.475774 1139.87098,482.570855 1141.00505,482.069443 Z M1040.81792,472.20927 C1043.35369,471.115952 1046.29565,472.285288 1047.38897,474.821055 L1075.07936,539.044243 C1075.6234,540.306051 1075.62418,541.736144 1075.0815,542.998539 L998.386083,721.410382 C997.596953,723.246089 995.790671,724.435714 993.792535,724.435714 L941.501792,724.435714 C940.840493,724.435714 940.185763,724.304532 939.57551,724.049762 C937.027242,722.985906 935.823888,720.057701 936.887744,717.509432 L1038.1835,474.874401 C1038.68294,473.678098 1039.62749,472.722537 1040.81792,472.20927 Z" id="Combined-Shape-Copy-4"></path>
        </g>
    </g>
</svg>