<?xml version="1.0" encoding="UTF-8"?>
<svg width="2474px" height="2278px" viewBox="0 0 2474 2278" version="1.1" xmlns="http://www.w3.org/2000/svg" xmlns:xlink="http://www.w3.org/1999/xlink">
    <title>Update Copy 4@2x</title>
    <defs>
        <polygon id="path-1" points="0 0 1058.626 0 1058.626 1149.1045 0 1149.1045"></polygon>
        <polygon id="path-3" points="0 0 129.803508 0 129.803508 121.622638 0 121.622638"></polygon>
    </defs>
    <g id="Update-Copy-4" stroke="none" stroke-width="1" fill="none" fill-rule="evenodd">
        <rect fill="#FFFFFF" x="0" y="0" width="2474" height="2278"></rect>
        <g id="Group-90" transform="translate(374.000000, 334.000000)">
            <g id="Group-89">
                <path d="M538.6328,31.1051755 C502.1918,-9.5128245 377.7948,-12.4748245 260.6718,34.8631755 C171.1698,71.0371755 77.6688,118.550176 44.1838,200.909176 C28.0428,240.612176 33.9638,299.365176 57.8648,335.299176 C88.5218,381.392176 143.7598,394.026176 195.9878,394.612176 C250.4268,395.222176 305.0218,385.138176 355.8598,365.738176 C396.8038,350.113176 435.4188,328.590176 470.0238,301.758176 C510.9368,317.279176 543.9638,351.842176 556.0768,394.356176 C557.4888,399.311176 565.9898,400.090176 566.9128,394.356176 C576.1048,337.266176 569.8128,276.064176 547.1948,222.254176 C562.6598,199.606176 574.3668,174.654176 579.3058,147.580176 C588.7458,95.8311755 573.3828,69.8381755 538.6328,31.1051755" id="Fill-1" fill="#CAB0CE"></path>
                <path d="M785.4097,453.565176 C776.5337,437.590176 755.1057,419.006176 735.9667,429.472176 C727.7197,433.982176 723.0017,443.306176 725.3427,452.560176 C727.8787,462.581176 736.9097,470.280176 744.9977,475.991176 C752.3687,481.195176 762.2087,486.534176 771.2347,483.982176 C775.4497,483.742176 779.5167,482.505176 782.8467,479.718176 C790.7687,473.092176 790.0297,461.881176 785.4097,453.565176" id="Fill-3" fill="#CAB0CE"></path>
                <path d="M677.0616,1525.76698 C671.0526,1545.54098 647.8196,1556.20198 629.2246,1546.18098 C611.5876,1536.67598 606.1696,1513.95698 617.2136,1497.78698 C623.4896,1486.70398 635.6166,1479.18798 649.2686,1480.37298 C671.2696,1482.28198 683.1346,1505.78198 677.0616,1525.76698 M703.4616,1476.18098 C696.0096,1470.72598 688.3696,1465.53798 680.4886,1460.71798 C672.0096,1455.53298 662.8986,1449.19098 653.4126,1446.10998 C653.2136,1446.04598 653.0146,1445.99798 652.8156,1445.95798 C651.6126,1444.68698 649.7156,1444.04198 647.3526,1444.77698 C636.8286,1448.04898 626.6516,1453.15498 616.5026,1457.45198 C606.2646,1461.78598 595.9466,1465.96998 585.8156,1470.54698 C584.7156,1471.04398 583.9296,1471.75698 583.4056,1472.57598 C582.1606,1473.26898 581.2266,1474.48798 581.0476,1476.26898 C579.9156,1487.56298 580.5856,1499.23598 580.4816,1510.58398 C580.3756,1522.21198 580.1956,1533.83898 580.2766,1545.46798 C580.3036,1549.34998 583.2196,1551.45598 584.1646,1552.19098 C592.0186,1558.29898 600.7606,1563.40198 609.1066,1568.80998 C617.2916,1574.11498 625.3386,1580.07198 633.9476,1584.65898 C634.3346,1584.86598 634.7166,1584.99698 635.0946,1585.09498 C636.4306,1586.54798 638.5006,1587.40298 640.6576,1586.72898 C651.1196,1583.46198 661.1896,1577.71398 671.1446,1573.13198 C681.2486,1568.48098 691.5166,1564.07798 701.4646,1559.10498 C704.1356,1557.76998 705.0446,1555.20398 704.7096,1552.87598 C706.6506,1541.55598 706.2876,1529.43998 706.9306,1517.98898 C707.2466,1512.36698 708.7646,1485.32298 708.9546,1482.42398 C709.1476,1479.48498 705.5986,1477.73198 703.4616,1476.18098" id="Fill-5" fill="#CAB0CE"></path>
                <path d="M1589.6407,1115.68538 C1566.0617,1120.15438 1542.5237,1123.30138 1518.4777,1123.42138 C1494.3177,1123.54138 1470.9977,1120.11338 1447.2157,1116.37138 C1440.8527,1115.37038 1437.9667,1124.47338 1444.4887,1126.26338 C1468.2147,1132.77538 1493.9607,1134.58638 1518.4777,1134.52638 C1543.2107,1134.46538 1568.4497,1132.03138 1592.4487,1125.87038 C1599.1057,1124.16138 1596.2427,1114.43438 1589.6407,1115.68538" id="Fill-7" fill="#CAB0CE"></path>
                <path d="M868.567,1439.40558 C849.521,1454.51758 829.63,1468.14158 807.755,1478.87758 C786.01,1489.54858 762.943,1497.36558 739.254,1502.38458 C732.504,1503.81458 735.375,1514.05858 742.1,1512.70558 C790.792,1502.90958 839.213,1480.62358 875.986,1446.82458 C881.068,1442.15358 873.724,1435.31358 868.567,1439.40558" id="Fill-9" fill="#CAB0CE"></path>
                <path d="M771.5008,1525.52228 C761.6378,1527.09828 751.7958,1528.83128 742.0568,1531.05528 C735.4178,1532.57028 738.3948,1541.98328 744.8078,1541.03728 C754.6918,1539.57828 764.4948,1537.63228 774.2588,1535.52628 C780.8838,1534.09828 777.9618,1524.49028 771.5008,1525.52228" id="Fill-11" fill="#CAB0CE"></path>
                <path d="M1002.0428,274.579276 C995.6898,269.738276 989.6368,264.573276 983.5468,259.405276 C978.1388,254.816276 985.9198,247.203276 991.2978,251.655276 C997.0908,256.451276 1002.9108,261.189276 1008.4428,266.285276 C1012.8058,270.304276 1006.8228,278.222276 1002.0428,274.579276 M955.5548,249.010276 C933.4228,243.050276 911.5058,237.426276 888.6448,235.006276 C877.2018,233.795276 865.6968,233.173276 854.1898,233.148276 C848.5928,233.136276 842.9948,233.264276 837.4038,233.537276 C832.0048,233.800276 826.5378,234.680276 821.1758,233.931276 C815.8238,233.183276 816.9658,225.615276 821.1758,224.198276 C826.7478,222.322276 833.4188,222.611276 839.2678,222.347276 C844.8598,222.095276 850.4578,221.985276 856.0558,222.014276 C867.5608,222.074276 879.0638,222.737276 890.5008,223.985276 C913.3768,226.482276 936.7778,230.640276 958.3748,238.780276 C964.6588,241.148276 962.2628,250.816276 955.5548,249.010276 M757.0928,174.353276 C742.2938,172.852276 728.9798,174.120276 714.6398,177.989276 C707.9398,179.796276 705.7088,170.282276 711.8448,167.849276 C726.2588,162.131276 743.3408,161.028276 758.5098,163.887276 C764.4028,164.997276 763.0288,174.954276 757.0928,174.353276 M1039.2118,265.561276 C1004.4128,234.989276 960.2668,211.991276 914.7528,203.035276 C912.8628,202.663276 910.9698,202.316276 909.0758,201.984276 C910.2088,199.518276 910.0728,196.455276 907.8588,194.627276 C859.7448,154.884276 794.6968,133.083276 732.2348,138.263276 C732.2298,138.264276 732.2258,138.265276 732.2198,138.265276 C730.7608,136.616276 728.4348,135.884276 726.1158,137.475276 C709.4658,148.898276 695.9118,167.321276 685.7818,184.527276 C675.4138,202.136276 666.7818,222.478276 663.7358,242.799276 C663.6508,243.367276 663.6468,243.906276 663.7008,244.419276 C663.1938,244.794276 662.7228,245.274276 662.3168,245.892276 C641.6968,277.294276 630.1968,314.216276 628.2238,351.658276 C628.0028,355.852276 633.5578,359.462276 637.1518,356.780276 C677.5468,326.634276 721.5358,299.202276 769.4248,282.626276 C770.5838,284.234276 772.5358,285.291276 775.0058,284.807276 C837.8768,272.490276 918.4108,257.949276 967.8808,310.704276 C979.1068,322.677276 986.4518,336.879276 990.2178,352.798276 C990.5788,354.322276 991.2758,355.451276 992.1648,356.240276 C991.5898,357.881276 990.9098,359.500276 990.1198,361.088276 C986.8218,367.717276 995.8918,376.196276 1001.1178,369.574276 C1013.2778,354.166276 1023.6628,337.329276 1032.1118,319.513276 C1040.4728,301.883276 1039.3018,265.050276 1039.2118,265.561276" id="Fill-13" fill="#009F70"></path>
                <path d="M781.4229,687.622376 C780.7189,677.475376 779.6639,666.442376 776.1029,656.858376 C774.1859,651.699376 764.7649,651.862376 765.6139,658.277376 C765.7869,659.580376 765.9869,660.876376 766.1979,662.171376 C763.9459,662.569376 762.0519,664.260376 762.2269,667.279376 C763.1869,683.868376 764.7289,700.481376 765.2179,717.089376 C765.6639,732.197376 763.0279,746.012376 754.5229,758.692376 C752.0169,762.430376 749.1939,765.944376 746.1139,769.237376 C743.7919,767.633376 740.3629,767.645376 738.4269,770.815376 C734.8879,776.610376 730.4749,781.627376 725.4339,785.958376 C712.5629,793.874376 697.9889,799.238376 683.6269,801.878376 C654.6039,807.213376 623.8939,800.560376 599.2879,784.424376 C576.2059,769.288376 559.3539,746.238376 547.4479,721.661376 C544.9639,716.534376 542.7149,711.313376 540.6249,706.030376 C541.6939,705.162376 542.4299,703.815376 542.4659,701.972376 C543.0389,672.740376 532.8609,642.919376 516.9989,618.609376 C513.4279,613.136376 505.3089,616.643376 506.6099,622.989376 C506.7649,623.747376 506.9239,624.511376 507.0799,625.270376 C504.6859,625.572376 502.5709,627.288376 502.6869,630.455376 C502.7179,631.302376 502.7709,632.146376 502.8109,632.992376 C499.7799,633.128376 496.7129,635.702376 497.5659,639.592376 C502.1929,660.688376 508.4229,681.447376 515.5969,701.811376 C522.2999,720.835376 529.6269,740.020376 540.2169,757.267376 C542.2009,760.498376 544.3239,763.636376 546.5629,766.684376 C543.3689,767.849376 541.3379,772.072376 544.3759,775.435376 C562.3619,795.346376 588.2999,809.310376 614.4119,815.855376 C618.4359,817.146376 622.5289,818.252376 626.6859,819.146376 C629.4329,819.736376 632.2039,820.244376 634.9919,820.668376 C640.6209,822.067376 646.3479,823.015376 651.9549,823.602376 C666.0249,827.208376 682.2389,825.527376 695.9539,821.893376 C711.2839,817.830376 725.4579,810.143376 737.5549,799.938376 C761.8439,779.446376 776.4119,749.251376 780.4969,718.035376 C781.8169,707.951376 782.1269,697.769376 781.4229,687.622376" id="Fill-15" fill="#009F70"></path>
                <path d="M447.81,1075.49978 C445.508,1068.81978 443.198,1062.13478 440.791,1055.49078 C441.808,1050.45978 441.077,1045.19678 437.67,1040.48278 C435.195,1037.05878 430.374,1035.39578 427.143,1039.05778 C394.127,1076.47878 343.536,1083.63278 297.69,1087.99078 C272.519,1090.38278 247.163,1092.35978 222.486,1098.40278 C200.498,1103.78778 176.574,1112.33978 159.755,1128.84178 C150.541,1137.88278 144.924,1149.55878 143.401,1162.69378 C141.744,1176.99578 144.634,1191.40478 147.615,1205.30378 C148.81,1210.87578 157.499,1212.56678 159.879,1206.98778 C175.633,1170.07578 205.07,1139.86878 240.92,1124.81978 C245.969,1122.70078 251.064,1120.98178 256.195,1119.55978 C266.479,1118.18178 276.864,1117.32478 287.177,1116.17378 C288.064,1118.10678 289.824,1119.57878 292.296,1119.50578 C309.281,1119.00678 326.296,1117.46378 343.157,1114.83778 C361.277,1114.13978 379.41,1113.53878 397.268,1109.99678 C412.712,1106.93478 429.514,1101.71678 442.959,1093.12278 C449.819,1088.73778 450.338,1082.83778 447.81,1075.49978" id="Fill-17" fill="#009F70"></path>
                <path d="M1453.5916,1385.11538 C1453.5916,1404.30138 1437.9846,1419.91038 1418.7986,1419.91038 C1399.6126,1419.91038 1384.0056,1404.30138 1384.0056,1385.11538 C1384.0056,1365.92938 1399.6126,1350.32038 1418.7986,1350.32038 C1437.9846,1350.32038 1453.5916,1365.92938 1453.5916,1385.11538 M1483.6926,1365.42838 L1478.4536,1365.42838 C1477.4746,1362.46938 1476.2826,1359.60938 1474.8926,1356.86238 L1478.6066,1353.14938 C1481.7386,1350.01738 1481.7386,1344.93838 1478.6066,1341.80638 L1462.1076,1325.30738 C1458.9756,1322.17538 1453.8966,1322.17538 1450.7646,1325.30738 L1447.0516,1329.02038 C1444.3046,1327.63138 1441.4446,1326.43838 1438.4856,1325.45938 L1438.4856,1320.22138 C1438.4856,1315.79138 1434.8946,1312.20038 1430.4646,1312.20038 L1407.1316,1312.20038 C1402.7026,1312.20038 1399.1116,1315.79138 1399.1116,1320.22138 L1399.1116,1325.45938 C1396.1526,1326.43838 1393.2916,1327.63138 1390.5446,1329.02038 L1386.8316,1325.30738 C1383.6996,1322.17538 1378.6216,1322.17538 1375.4896,1325.30738 L1358.9906,1341.80638 C1355.8586,1344.93838 1355.8586,1350.01738 1358.9906,1353.14938 L1362.7036,1356.86238 C1361.3146,1359.60938 1360.1216,1362.46938 1359.1426,1365.42838 L1353.9046,1365.42838 C1349.4746,1365.42838 1345.8836,1369.01938 1345.8836,1373.44938 L1345.8836,1396.78138 C1345.8836,1401.21138 1349.4746,1404.80238 1353.9036,1404.80238 L1359.1426,1404.80238 C1360.1216,1407.76138 1361.3146,1410.62138 1362.7036,1413.36838 L1358.9906,1417.08138 C1355.8586,1420.21438 1355.8586,1425.29238 1358.9906,1428.42438 L1375.4896,1444.92338 C1378.6216,1448.05538 1383.6996,1448.05538 1386.8316,1444.92338 L1390.5446,1441.21038 C1393.2916,1442.60038 1396.1526,1443.79238 1399.1116,1444.77138 L1399.1116,1450.00938 C1399.1116,1454.43938 1402.7026,1458.03038 1407.1316,1458.03038 L1430.4646,1458.03038 C1434.8946,1458.03038 1438.4856,1454.43938 1438.4856,1450.00938 L1438.4856,1444.77138 C1441.4446,1443.79238 1444.3046,1442.60038 1447.0516,1441.21038 L1450.7646,1444.92338 C1453.8966,1448.05538 1458.9756,1448.05538 1462.1076,1444.92338 L1478.6066,1428.42438 C1481.7386,1425.29238 1481.7386,1420.21438 1478.6066,1417.08138 L1474.8926,1413.36838 C1476.2826,1410.62138 1477.4746,1407.76138 1478.4536,1404.80238 L1483.6926,1404.80238 C1488.1216,1404.80238 1491.7126,1401.21138 1491.7126,1396.78138 L1491.7126,1373.44938 C1491.7126,1369.01938 1488.1216,1365.42838 1483.6926,1365.42838" id="Fill-19" fill="#009F70"></path>
                <path d="M1469.5304,848.524976 C1481.4314,843.995976 1495.3884,851.294976 1497.5184,864.134976 C1499.5384,876.312976 1490.5114,887.521976 1478.4684,888.238976 C1470.7014,889.359976 1462.4654,886.285976 1457.8934,879.186976 C1450.5264,867.746976 1457.5024,853.102976 1469.5304,848.524976 M1435.4124,854.361976 C1435.5654,860.050976 1435.9194,865.729976 1436.5424,871.387976 C1437.2144,877.474976 1437.5604,884.305976 1439.6364,890.089976 C1439.6804,890.210976 1439.7314,890.325976 1439.7874,890.437976 C1439.6214,891.502976 1440.0234,892.670976 1441.2724,893.544976 C1446.8354,897.438976 1453.1614,900.471976 1459.0824,903.796976 C1465.0554,907.150976 1470.9854,910.599976 1477.0364,913.809976 C1477.6934,914.158976 1478.3374,914.272976 1478.9344,914.219976 C1479.7414,914.564976 1480.6874,914.559976 1481.6224,913.975976 C1487.5524,910.267976 1492.9874,905.538976 1498.5564,901.309976 C1504.2624,896.975976 1509.9954,892.678976 1515.6304,888.253976 C1517.5124,886.776976 1517.4384,884.560976 1517.44058,883.823976 C1517.4544,877.692976 1516.6434,871.508976 1516.1314,865.402976 C1515.6294,859.413976 1515.4974,853.246976 1514.4854,847.321976 C1514.4404,847.055976 1514.3604,846.819976 1514.2654,846.598976 C1514.4694,845.399976 1514.1054,844.068976 1512.9634,843.271976 C1507.4264,839.405976 1500.8274,836.667976 1494.8404,833.544976 C1488.7644,830.375976 1482.7464,827.032976 1476.5714,824.060976 C1474.9134,823.263976 1473.3204,823.787976 1472.3124,824.828976 C1466.0644,828.152976 1460.2984,832.898976 1454.4754,836.904976 C1451.6174,838.870976 1437.8674,848.330976 1436.3834,849.330976 C1434.8784,850.344976 1435.3634,852.735976 1435.4124,854.361976" id="Fill-21" fill="#009F70"></path>
                <path d="M1351.4647,1281.18978 C1338.6857,1275.25878 1325.8217,1269.34278 1312.6557,1264.31078 C1307.1487,1262.20678 1303.3517,1271.23178 1308.6307,1273.85678 C1321.2537,1280.13278 1334.3367,1285.54778 1347.3587,1290.92878 C1352.8957,1293.21578 1356.9317,1283.72778 1351.4647,1281.18978" id="Fill-23" fill="#009F70"></path>
                <path d="M1323.9213,1319.45538 C1316.1793,1310.00738 1308.0863,1300.85138 1299.9653,1291.72938 C1295.2853,1286.47338 1287.7623,1294.14838 1292.2803,1299.41338 C1300.2283,1308.67438 1308.2123,1317.91238 1316.5353,1326.84138 C1321.1993,1331.84438 1328.1023,1324.55738 1323.9213,1319.45538" id="Fill-25" fill="#009F70"></path>
                <path d="M1414.8978,881.338176 C1386.1748,902.121176 1364.5088,933.940176 1355.4478,968.205176 C1353.6908,974.846176 1363.6568,977.546176 1365.7008,971.031176 C1375.9458,938.381176 1394.9118,911.296176 1421.3118,889.651176 C1425.9118,885.879176 1419.7758,877.808176 1414.8978,881.338176" id="Fill-27" fill="#009F70"></path>
                <path d="M1427.41,903.845976 C1422.82,906.795976 1418.625,910.352976 1414.501,913.910976 C1410.119,917.691976 1415.9,925.285976 1420.731,921.984976 C1425.228,918.910976 1429.738,915.764976 1433.767,912.084976 C1438.138,908.092976 1432.439,900.613976 1427.41,903.845976" id="Fill-29" fill="#009F70"></path>
                <path d="M661.0877,251.954276 C712.3007,232.332276 764.8077,214.938276 819.6227,209.200276 C868.6657,204.066276 918.8437,208.480276 964.9387,226.711276 C988.4987,236.029276 1010.3387,249.496276 1029.2917,266.298276 C1032.8827,269.133276 1037.9747,273.110276 1038.9587,273.895276 C1039.7407,272.039276 1043.7967,262.783276 1040.9787,260.215276 C1038.8017,258.231276 1036.5827,256.299276 1034.3287,254.412276 C1035.2777,253.485276 1035.9657,252.231276 1036.1647,250.645276 C1040.0077,220.013276 1032.0367,187.513276 1013.9727,162.384276 C996.7757,138.461276 966.5427,115.093276 935.1577,122.004276 C932.6597,122.554276 931.4577,124.681276 931.3807,126.878276 C930.4187,128.411276 930.1687,130.338276 931.3117,132.129276 C940.2237,146.098276 948.8167,159.899276 955.2157,175.259276 C960.6257,188.247276 964.6787,201.751276 967.5537,215.512276 C964.6597,214.387276 961.7517,213.297276 958.8187,212.272276 C958.8087,212.223276 958.8037,212.176276 958.7927,212.126276 C949.8547,173.320276 932.3917,133.606276 900.9157,107.900276 C886.5687,96.1832755 869.7517,87.2032755 851.4907,83.5272755 C831.0227,79.4072755 809.8447,82.1742755 790.6087,90.0682755 C769.6357,98.6752755 748.9247,113.091276 734.4937,130.720276 C733.4247,132.026276 733.0507,133.440276 733.1667,134.749276 C732.0827,134.814276 726.5027,133.771276 724.5007,135.176276 C723.0497,136.194276 721.6217,137.233276 720.2177,138.293276 C716.9897,140.729276 718.7037,145.867276 722.7477,145.848276 C726.3547,145.831276 729.4337,145.835276 729.6787,145.877276 C761.9117,143.965276 794.1247,147.713276 824.9947,157.271276 C853.8477,166.204276 883.3437,180.133276 906.9807,199.480276 C853.9157,191.440276 799.9947,197.547276 748.3067,211.059276 C720.1047,218.432276 692.4127,227.840276 665.2987,238.557276 C665.3467,238.416276 661.3047,241.684276 657.1417,245.603276 C654.1367,248.433276 657.1887,253.426276 661.0517,251.970276 C661.0747,251.961276 661.0867,251.956276 661.0877,251.954276" id="Fill-31" fill="#2C363E"></path>
                <path d="M1009.569,970.181476 C1000.988,959.227476 990.775,949.277476 979.113,941.638476 C974.35,938.517476 968.433,945.933476 972.941,949.638476 C987.928,961.952476 1005.9,976.851476 1011.388,996.308476 C1013.871,1005.11448 1013.186,1015.13448 1006.674,1022.07648 C1000.165,1029.01448 992.289,1028.13648 984.982,1023.64648 C986.509,1004.20348 966.809,984.916476 951.205,976.902476 C928.237,965.104476 897.502,966.774476 877.69,984.229476 C873.06,988.308476 879.073,996.039476 884.275,992.763476 C899.686,983.058476 916.876,977.871476 934.955,982.961476 C950.422,987.316476 965.537,999.042476 971.519,1014.30848 C975.264,1023.86748 971.279,1030.97348 964.071,1037.33948 C957.741,1042.93048 950.076,1047.21648 942.1,1049.94948 C934.049,1052.70748 925.637,1054.08348 917.124,1053.91848 C909.427,1053.76948 900.203,1052.72848 893.653,1048.31048 C883.45,1041.42848 892.959,1031.65548 900.945,1028.40848 C911.522,1024.10848 923.505,1023.48448 934.61,1025.78448 C941.398,1027.18948 944.329,1016.90748 937.493,1015.32748 C924.894,1012.41748 911.674,1012.75248 899.408,1017.03948 C889.027,1020.66848 878.489,1028.01848 877.776,1040.03848 C876.33,1064.42948 912.641,1066.98248 929.426,1064.86448 C940.643,1063.44948 951.592,1059.74048 961.273,1053.86848 C968.894,1049.24548 976.945,1043.03148 981.449,1035.01348 C989.044,1040.34548 1000.818,1039.57848 1008.426,1035.12848 C1018.94,1028.97948 1024.355,1016.71248 1024.027,1004.81848 C1023.67,991.833476 1017.406,980.185476 1009.569,970.181476" id="Fill-33" fill="#2C363E"></path>
                <path d="M763.2696,731.034476 C744.9326,767.974476 708.1666,793.901476 666.3636,794.804476 C644.6716,795.272476 623.0016,789.408476 604.5506,777.981476 C585.6716,766.289476 571.3586,748.753476 561.0326,729.287476 C547.6506,704.058476 541.7366,676.089476 536.7606,648.217476 C535.5326,641.336476 525.4256,644.367476 526.3946,651.075476 C533.5636,700.698476 550.7846,754.002476 593.6776,784.095476 C631.4276,810.580476 682.9006,813.039476 722.8956,790.208476 C744.2686,778.007476 762.5126,759.056476 772.7546,736.578476 C775.6406,730.244476 766.4466,724.634476 763.2696,731.034476" id="Fill-35" fill="#2C363E"></path>
                <path d="M565.244,787.323476 C544.856,762.386476 530.523,734.916476 522.571,703.647476 C520.892,697.046476 511.069,699.858476 512.431,706.443476 C519.117,738.754476 535.199,770.633476 557.908,794.659476 C562.58,799.603476 569.388,792.391476 565.244,787.323476" id="Fill-37" fill="#2C363E"></path>
                <path d="M809.9918,412.094076 C803.1688,408.439076 794.7838,413.194076 794.8498,421.029076 C794.8648,422.853076 795.4858,424.590076 796.5068,426.051076 C797.1878,429.161076 799.7858,431.786076 802.8568,432.656076 C806.2778,433.626076 809.9108,432.398076 812.3948,429.952076 C817.5118,424.915076 816.3778,415.515076 809.9918,412.094076" id="Fill-39" fill="#2C363E"></path>
                <path d="M930.8494,440.444576 C925.9414,436.141576 917.3794,436.979576 914.0404,442.884576 C912.3794,445.823576 912.4094,449.339576 914.2074,452.201576 C915.0544,453.550576 916.1434,454.523576 917.3694,455.145576 C920.4934,458.204576 925.7574,458.973576 929.6364,456.598576 C935.3694,453.087576 935.8354,444.815576 930.8494,440.444576" id="Fill-41" fill="#2C363E"></path>
                <path d="M878.8921,406.021376 C874.6481,425.086376 870.8131,444.253376 866.8211,463.373376 C865.0861,471.682376 864.3271,482.097376 859.2731,489.178376 C854.7991,495.445376 847.4051,496.134376 841.5661,491.181376 C836.3841,486.786376 830.1401,493.314376 834.2291,498.517376 C839.7441,505.532376 850.2491,507.418376 858.2601,503.995376 C867.5421,500.028376 872.1231,490.469376 874.4301,481.185376 C880.3431,457.394376 884.8781,433.030376 889.6201,408.979376 C890.9931,402.014376 880.4571,398.988376 878.8921,406.021376" id="Fill-43" fill="#2C363E"></path>
                <path d="M827.7696,517.648676 C817.9666,514.563676 806.5316,516.300676 797.2306,520.237676 C788.7466,523.828676 777.1606,531.092676 775.2396,540.884676 C772.9566,552.518676 785.7876,557.013676 794.3426,551.593676 C799.7876,548.144676 804.6786,543.414676 809.6826,539.367676 C814.5206,535.454676 819.3576,531.542676 824.1956,527.629676 C824.9276,527.675676 825.6606,527.727676 826.3966,527.792676 C832.4006,528.320676 833.1086,519.328676 827.7696,517.648676" id="Fill-45" fill="#2C363E"></path>
                <path d="M866.8165,1305.48418 C864.3135,1293.94718 860.5185,1282.56818 857.3335,1271.19918 C854.1355,1259.78118 850.9365,1248.36318 847.7375,1236.94518 C841.3425,1214.11818 835.2585,1191.16318 828.1535,1168.54718 C826.1875,1162.29118 816.7305,1164.85318 818.3075,1171.26118 C823.9685,1194.28018 830.6795,1217.05918 837.0575,1239.89018 C840.1595,1250.99318 843.2615,1262.09618 846.3635,1273.19818 C849.6285,1284.88518 852.3615,1296.90918 856.3145,1308.37918 C858.5935,1314.99118 868.3105,1312.37318 866.8165,1305.48418" id="Fill-47" fill="#000000"></path>
                <path d="M1092.0839,996.965576 C1083.9009,1030.50758 1076.5969,1064.28058 1069.2489,1098.01458 C1067.7539,1104.87958 1078.2299,1107.82458 1079.8179,1100.92758 C1087.5709,1067.27858 1095.3759,1033.61158 1102.2919,999.779576 C1103.6449,993.160576 1093.7109,990.295576 1092.0839,996.965576" id="Fill-49" fill="#005E51"></path>
                <path d="M1019.9395,1125.50618 C1012.3225,1123.05718 1003.5505,1122.79618 995.6265,1121.68318 C987.4855,1120.54018 979.3475,1119.38318 971.2045,1118.25518 C955.0825,1116.02018 938.9475,1113.92918 922.7935,1111.94618 C916.9795,1111.23218 915.5565,1121.34718 921.3985,1122.25118 C937.6355,1124.76218 953.8825,1127.16918 970.1595,1129.40818 C977.9805,1130.48518 985.8035,1131.55118 993.6255,1132.62218 C1001.7095,1133.73018 1010.4135,1135.91618 1018.5695,1135.62718 C1024.4155,1135.41918 1025.5145,1127.29818 1019.9395,1125.50618" id="Fill-51" fill="#005E51"></path>
                <path d="M999.1653,1164.57938 C986.5003,1163.77838 973.3473,1165.24038 960.7743,1166.72038 C948.1883,1168.20238 935.6743,1170.39738 923.3483,1173.34338 C916.7893,1174.91138 919.6043,1184.64038 926.1133,1183.37038 C938.2383,1181.00438 950.4063,1179.04838 962.6863,1177.66738 C974.8273,1176.30238 987.0223,1176.20938 999.1653,1175.09538 C1005.8583,1174.48038 1005.9963,1165.01138 999.1653,1164.57938" id="Fill-53" fill="#005E51"></path>
                <path d="M1615.8521,618.073076 C1570.1221,663.991076 1509.8831,697.994076 1444.6961,704.633076 C1382.5841,710.958076 1316.6821,693.966076 1268.3201,653.657076 C1256.5281,643.828076 1245.7631,632.698076 1236.5471,620.411076 C1233.6361,616.531076 1227.2531,616.547076 1225.7771,621.819076 C1199.6101,715.294076 1200.5981,815.973076 1228.0521,909.054076 C1230.9121,918.749076 1234.0901,928.318076 1237.5501,937.777076 C1204.5631,890.504076 1175.4691,840.556076 1150.8801,788.372076 C1116.8361,716.122076 1090.2711,638.885076 1082.4581,559.027076 C1074.9841,482.631076 1084.9141,402.995076 1120.0251,334.048076 C1150.2081,274.776076 1198.2991,225.164076 1256.1501,192.446076 C1318.7941,157.017076 1391.8191,143.375076 1463.1581,152.137076 C1532.9121,160.706076 1601.5021,191.167076 1650.8301,241.847076 C1673.9991,265.651076 1692.7411,294.087076 1703.3651,325.682076 C1715.0691,360.491076 1717.0621,398.037076 1711.4311,434.214076 C1700.6491,503.489076 1665.1211,568.601076 1615.8521,618.073076 M1694.5761,279.409076 C1658.0181,218.585076 1595.4731,176.201076 1528.7251,154.789076 C1456.1751,131.516076 1375.6181,132.144076 1303.8201,157.950076 C1238.8291,181.309076 1181.6891,224.277076 1140.4171,279.557076 C1094.4721,341.095076 1072.1021,416.832076 1069.0651,493.049076 C1065.7771,575.552076 1085.0921,657.438076 1115.1061,733.844076 C1144.8341,809.522076 1184.0871,881.563076 1231.0981,947.881076 C1238.9971,959.024076 1247.1471,969.977076 1255.5041,980.774076 C1256.1881,982.239076 1264.8371,992.684076 1266.6991,995.003076 C1271.0641,1000.44008 1278.5781,992.753076 1274.3341,987.369076 C1271.4761,983.743076 1268.6471,980.097076 1265.8371,976.436076 C1226.3081,892.036076 1211.3731,796.250076 1221.6851,703.765076 C1224.2291,680.954076 1228.4601,658.348076 1234.1591,636.118076 C1273.9591,683.057076 1332.6601,710.376076 1393.7061,716.468076 C1461.2291,723.207076 1528.2181,701.612076 1582.7021,661.997076 C1639.6761,620.570076 1683.8371,561.365076 1707.8221,495.168076 C1733.3401,424.740076 1733.9461,344.914076 1694.5761,279.409076" id="Fill-55" fill="#CAB0CE"></path>
                <path d="M1364.8243,1029.43868 C1336.9743,1037.79068 1308.4953,1044.35068 1280.3493,1051.63068 C1252.1963,1058.91168 1224.1023,1066.94468 1195.7043,1073.20768 C1189.1053,1074.66268 1186.4033,1065.01468 1192.9093,1063.06768 C1220.7643,1054.73068 1249.2163,1048.08868 1277.3533,1040.76268 C1305.4903,1033.43668 1333.5673,1025.31968 1361.9663,1019.07268 C1368.7133,1017.58868 1371.4743,1027.44468 1364.8243,1029.43868 M1200.6473,1167.17868 C1195.8433,1162.66968 1189.9563,1159.34268 1184.2163,1158.28068 C1171.3393,1155.89768 1159.7363,1162.97268 1156.0893,1175.55368 C1155.7303,1176.79268 1155.4393,1178.05368 1155.1983,1179.33068 C1153.0713,1173.76568 1154.5093,1165.67968 1155.5933,1160.85968 C1157.5103,1152.34368 1161.4593,1144.22668 1167.6303,1137.98268 C1179.0653,1126.40968 1198.8723,1122.76968 1212.2933,1133.11568 C1201.0973,1139.82168 1200.2213,1154.61468 1200.6473,1167.17868 M1060.6143,1172.36068 C1053.0893,1180.17968 1045.5203,1187.95068 1037.9103,1195.68568 C1033.2273,1200.44468 1025.9353,1193.13768 1030.5903,1188.36668 C1038.1683,1180.59968 1045.7823,1172.87468 1053.4443,1165.19068 C1058.0653,1160.55668 1065.1413,1167.65968 1060.6143,1172.36068 M999.6753,1230.02668 C970.7773,1261.35768 940.7283,1291.67068 911.0873,1322.29668 C881.4403,1352.92968 852.0063,1383.78768 822.0673,1414.13468 C817.1373,1419.13168 809.5833,1411.52768 814.3833,1406.45068 C843.6683,1375.46868 873.4823,1344.97268 903.0623,1314.27268 C932.6313,1283.58268 961.8743,1252.49668 992.1743,1222.52468 C997.0533,1217.69768 1004.2933,1225.02068 999.6753,1230.02668 M1418.1783,994.742676 C1416.5033,993.128676 1414.4803,992.381676 1412.4783,992.324676 C1411.3033,991.465676 1409.7433,991.099676 1407.8983,991.636676 C1339.0933,1011.68368 1269.4933,1028.86768 1199.2863,1043.24768 C1179.5053,1047.29968 1159.6573,1050.97768 1139.8313,1054.79968 C1137.4123,1055.26668 1136.2093,1056.83068 1135.9563,1058.61568 C1047.8683,1146.80768 959.7683,1234.98668 871.7113,1323.20768 C846.8523,1348.11368 821.8843,1372.91868 797.2003,1397.99668 C796.3843,1398.82568 795.9203,1399.72768 795.7253,1400.63168 C795.0263,1401.87068 794.7683,1403.32468 795.3023,1404.66968 C796.3173,1407.22268 797.3443,1409.76968 798.3853,1412.31268 C799.4443,1414.90068 800.2903,1417.80968 801.8723,1420.11968 C801.9253,1420.19768 801.9873,1420.25568 802.0423,1420.33068 C802.5173,1422.75168 804.3123,1424.87568 807.1693,1424.59668 C841.6053,1421.24068 876.0223,1415.02668 910.0923,1409.09768 C910.8443,1408.96668 911.5953,1408.83068 912.3473,1408.69868 C924.8803,1443.61868 961.1133,1468.83368 996.7533,1474.58868 C1045.3323,1482.43468 1093.1453,1461.94168 1129.1243,1430.17468 C1139.2003,1421.27868 1148.4693,1411.49468 1157.0563,1401.16068 C1165.7033,1390.75368 1174.4963,1379.81668 1181.1623,1368.01168 C1184.0143,1362.96068 1176.6193,1356.62068 1172.7933,1361.55568 C1165.9223,1370.41868 1159.7913,1379.81768 1152.7783,1388.58468 C1145.7743,1397.33968 1138.3093,1405.73568 1130.3073,1413.59168 C1114.5813,1429.03068 1096.7063,1442.26868 1076.6453,1451.52668 C1037.7473,1469.47968 990.8153,1471.06168 954.9503,1445.43868 C940.8713,1435.37968 930.4543,1422.11468 923.7883,1406.67168 C953.2133,1401.38068 982.5433,1395.56068 1011.7583,1389.21168 C1029.8583,1385.27768 1071.1273,1377.30368 1072.9223,1374.73068 C1083.4823,1359.59168 1094.7743,1344.99468 1106.8383,1331.02368 C1117.9933,1318.10668 1130.3173,1306.44168 1141.9853,1294.06168 C1144.7543,1296.64568 1147.6563,1299.06668 1150.6863,1301.28068 C1155.6103,1304.87768 1161.7113,1296.89168 1157.2003,1292.83868 C1139.3073,1276.75868 1124.8443,1257.76968 1119.1003,1233.95168 C1116.8263,1224.51968 1117.9773,1206.19768 1132.2283,1208.56168 C1143.8873,1210.49568 1154.4113,1221.75268 1160.9293,1230.85468 C1161.3153,1231.39368 1161.7483,1231.83568 1162.2143,1232.18868 C1165.2543,1242.16068 1169.2283,1251.96568 1174.4373,1260.73568 C1178.0283,1266.78268 1186.3863,1261.49268 1183.6583,1255.34568 C1174.1813,1233.98668 1165.5213,1211.34368 1165.7613,1187.53868 C1165.8513,1178.58768 1169.1043,1168.50368 1179.8583,1169.10368 C1184.8313,1169.38068 1189.4563,1171.69568 1192.5993,1175.44368 C1202.8793,1187.70768 1205.3733,1212.45968 1207.9273,1223.85268 C1209.4603,1230.69268 1219.8333,1227.78368 1218.4063,1220.96368 C1215.3043,1206.14168 1211.5463,1191.69768 1210.6323,1176.57768 C1210.0733,1167.32668 1208.2813,1148.11768 1218.4383,1142.61968 C1229.2023,1136.79468 1240.1673,1146.57668 1245.7093,1155.00168 C1252.3143,1165.04268 1256.5393,1176.49968 1258.8543,1188.25468 C1268.5863,1237.67068 1241.4473,1285.71868 1202.8633,1314.93568 C1191.3103,1323.68468 1178.7033,1331.07168 1165.6313,1337.30268 C1151.8143,1343.88868 1137.3963,1348.26268 1123.0403,1353.41668 C1116.1493,1355.89068 1118.8173,1366.08268 1126.0853,1364.46068 C1140.6483,1361.21068 1154.9843,1355.32368 1168.5143,1349.11368 C1182.2253,1342.81968 1195.3763,1335.27868 1207.4573,1326.22468 C1229.5293,1309.68268 1248.4953,1288.41268 1260.0643,1263.19468 C1271.9053,1237.38268 1275.7063,1208.13368 1268.7993,1180.40568 C1267.6283,1175.70268 1265.9213,1170.34168 1263.6813,1164.90668 C1263.8343,1164.78468 1263.9863,1164.65368 1264.1353,1164.50968 C1289.9973,1139.63568 1315.0513,1113.89168 1340.4853,1088.58068 C1365.3373,1063.85068 1390.1543,1039.07668 1414.8363,1014.17768 C1419.9043,1009.06368 1424.6293,1000.95568 1418.1783,994.742676" id="Fill-57" fill="#2C363E"></path>
                <g id="Group-61" transform="translate(0.000000, 271.102253)">
                    <mask id="mask-2" fill="white">
                        <use xlink:href="#path-1"></use>
                    </mask>
                    <g id="Clip-60"></g>
                    <path d="M140.7632,544.899422 C134.6002,547.621422 129.1602,538.661422 135.3962,535.718422 C146.8162,530.329422 158.2442,524.967422 169.9042,520.116422 C175.3972,517.831422 179.1142,527.049422 173.9192,529.641422 C163.0312,535.073422 151.8932,539.983422 140.7632,544.899422 M98.9752,554.585422 C71.7402,560.548422 47.6412,579.627422 37.4042,605.880422 C32.0632,619.575422 30.5452,634.731422 32.9282,649.235422 C35.4782,664.760422 42.3802,677.076422 50.9372,689.961422 C54.2702,694.980422 46.8272,700.372422 42.7712,696.262422 C32.5892,685.943422 26.1992,670.707422 23.1132,656.750422 C17.5762,631.709422 21.9862,604.891422 36.6692,583.686422 C50.5742,563.605422 71.9742,548.718422 96.0802,544.083422 C102.9072,542.770422 105.8582,553.077422 98.9752,554.585422 M258.2072,400.926422 C267.8732,381.212422 283.9972,362.423422 302.1522,350.048422 C307.1662,346.630422 313.2092,354.537422 308.6222,358.435422 C300.5412,365.302422 292.6222,372.128422 285.6092,380.127422 C278.5442,388.185422 272.7722,397.060422 267.1662,406.163422 C263.6272,411.908422 255.2892,406.877422 258.2072,400.926422 M328.2662,333.966422 C333.2242,330.572422 339.1842,327.850422 344.6802,325.445422 C350.7092,322.808422 355.8022,330.831422 349.9522,334.464422 C344.4272,337.897422 338.4392,341.342422 332.3632,343.684422 C326.3742,345.991422 323.6452,337.130422 328.2662,333.966422 M902.8882,370.202422 C900.3712,375.568422 891.3332,371.687422 893.3432,366.178422 C895.5382,360.161422 897.3662,353.877422 898.1292,347.499422 C898.8942,341.102422 898.3382,334.864422 898.0512,328.468422 C897.7862,322.550422 906.8182,321.499422 908.2412,327.089422 C911.8342,341.207422 908.9812,357.218422 902.8882,370.202422 M891.9542,394.426422 C890.0712,397.893422 887.8912,401.174422 885.5312,404.329422 C883.8322,406.600422 881.0432,407.771422 878.3692,406.207422 C875.8982,404.762422 875.1112,401.512422 876.4922,399.046422 C878.4152,395.607422 880.5332,392.284422 882.9352,389.154422 C884.6582,386.909422 887.3892,385.706422 890.0802,387.281422 C892.5682,388.735422 893.3002,391.948422 891.9542,394.426422 M1057.2002,737.706422 C1049.1012,680.413422 1004.0032,633.097422 947.2062,622.061422 C881.2592,609.248422 818.5362,640.468422 763.5652,673.310422 C705.0982,708.241422 647.9152,745.346422 591.6852,783.766422 C545.9542,815.012422 500.8092,847.149422 456.2592,880.069422 C452.9792,872.597422 449.0762,865.351422 445.4712,858.041422 C441.7942,850.587422 438.5342,842.471422 434.1702,835.337422 C441.9782,831.740422 449.4622,827.417422 456.4692,822.194422 C458.5512,820.643422 459.0972,818.344422 458.6672,816.296422 C458.7812,815.535422 458.6972,814.704422 458.3432,813.822422 C452.2402,798.618422 446.0602,783.880422 442.1482,767.892422 C439.0252,755.131422 437.5672,742.430422 436.3522,729.530422 C436.7782,730.590422 437.1732,731.670422 437.5202,732.783422 C439.1822,738.131422 448.6212,737.508422 447.8242,731.389422 C445.8272,716.050422 429.8642,699.783422 413.3462,701.899422 C408.2112,702.556422 405.8212,710.631422 411.9952,711.881422 C416.9532,712.885422 421.4662,713.723422 425.6512,716.244422 C425.0952,717.041422 424.7332,718.060422 424.6932,719.323422 C424.1622,736.121422 427.2402,753.714422 431.1012,770.001422 C434.7472,785.381422 439.6202,801.443422 446.9142,815.614422 C405.6722,843.344422 353.1632,840.676422 305.4842,842.882422 C279.7882,844.071422 253.5442,846.551422 229.2382,855.499422 C207.1062,863.647422 187.5132,877.058422 172.7962,895.581422 C163.1152,907.766422 155.7342,921.491422 150.9552,936.103422 C148.4122,896.951422 148.9802,857.178422 151.1572,818.065422 C155.5462,739.220422 170.3592,659.442422 205.9732,588.360422 C236.2592,527.911422 280.8952,473.333422 339.0532,437.902422 C369.3202,419.463422 402.4422,408.023422 436.4092,398.492422 C470.4642,388.937422 505.0852,380.816422 537.7802,367.064422 C569.9872,353.517422 599.3212,334.129422 620.8922,306.287422 C642.2542,278.714422 655.4322,245.237422 658.6462,210.507422 C659.3492,202.910422 659.4322,195.279422 659.0522,187.665422 C667.1642,186.128422 674.7012,181.493422 679.7042,173.894422 C683.0392,168.828422 675.2652,162.696422 671.2262,167.352422 C660.0522,180.233422 639.5572,178.828422 633.3362,161.844422 C630.4302,153.910422 630.7292,145.057422 630.9842,136.744422 C631.2532,127.950422 632.0062,119.120422 634.7032,110.696422 C639.0582,97.0944221 653.5312,81.4204221 669.4022,87.5324221 C678.8262,91.1614221 682.6032,99.1354221 683.7812,108.107422 C684.0362,109.956422 684.2572,114.596422 684.2152,116.843422 C684.1062,122.848422 683.3142,128.828422 682.6552,133.872422 C681.8672,139.914422 691.5152,140.877422 693.0752,135.282422 C694.5622,129.952422 695.5472,124.218422 695.7952,118.447422 C725.0152,117.216422 746.3542,91.6494221 765.4332,71.8914221 C787.4442,49.0984221 814.0922,33.0914221 845.7502,28.1914221 C854.7242,26.8034221 863.7482,26.7814221 872.8022,26.9394221 C878.3772,27.0364221 884.8352,27.3754221 890.8072,26.3934221 C898.2722,25.8374221 905.8292,23.0844221 911.4522,18.5574221 C917.7242,20.5124221 923.8662,22.8954221 929.8352,25.7664221 C936.0042,58.5374221 955.5862,87.9624221 982.3782,107.558422 C975.7232,128.666422 968.6712,149.532422 959.6172,169.914422 C947.4802,197.238422 933.1372,223.628422 916.7402,248.633422 C902.1642,270.859422 885.3322,292.519422 863.9312,308.599422 C840.9302,325.883422 813.3142,335.041422 784.4332,332.549422 C768.6632,331.188422 753.2762,326.130422 739.6472,318.118422 C725.9842,310.087422 715.6592,299.255422 705.4292,287.355422 C701.3032,282.556422 693.4802,288.758422 696.7292,294.068422 C711.5282,318.250422 739.7562,335.433422 766.9632,341.682422 C770.0042,342.380422 773.0612,342.951422 776.1282,343.409422 C767.3152,356.040422 761.3442,371.275422 757.5692,385.998422 C755.4922,394.100422 754.1262,402.401422 753.3992,410.732422 C752.6562,419.255422 751.8402,429.038422 753.9802,437.400422 C755.5662,443.594422 764.2222,441.860422 764.6542,435.956422 C765.2212,428.171422 764.1432,420.261422 764.7162,412.411422 C765.1502,406.480422 766.0012,400.596422 767.2232,394.783422 C808.1852,401.914422 845.9172,420.857422 877.3322,447.956422 C910.5452,476.606422 935.7522,513.234422 954.3502,552.758422 C965.2032,575.824422 973.1222,599.766422 980.6792,624.058422 C982.8212,630.945422 993.3392,628.109422 991.5192,621.069422 C980.0342,576.629422 960.5672,532.603422 934.3612,494.894422 C920.7072,475.245422 904.8192,457.070422 886.8822,441.258422 C908.2942,420.307422 921.7442,392.294422 924.5852,362.456422 C927.8502,328.181422 915.6332,293.651422 923.7592,259.660422 C923.7932,259.519422 923.8142,259.382422 923.8382,259.244422 C938.8702,237.163422 951.9322,213.633422 963.3272,189.531422 C977.3982,159.769422 990.3092,128.030422 997.8482,95.7574221 C996.4052,88.9124221 994.8162,82.0934221 993.6172,75.2044221 C976.4992,33.0154221 932.5582,8.11242209 888.5322,1.98742209 C860.5792,-1.90057791 832.2532,0.340422086 804.5432,5.04642209 C777.3812,9.65842209 750.6902,17.0324221 724.9992,26.9784221 C697.1852,37.7454221 669.5052,51.1104221 645.0552,68.3624221 C645.0972,68.0144221 636.3312,75.1334221 632.7982,78.7254221 C632.4402,82.1134221 632.0902,85.5024221 631.7482,88.8904221 C631.6762,89.5964221 631.7262,90.2254221 631.8672,90.7864221 C623.4912,101.530422 620.2832,115.591422 619.2702,129.297422 C618.6962,137.055422 618.2222,145.751422 619.2242,154.083422 C616.6102,172.507422 586.3282,221.155422 558.3812,241.277422 C525.9912,264.599422 487.4382,275.312422 448.8272,283.240422 C377.3382,297.920422 293.1462,307.080422 244.9582,369.263422 C224.1622,396.100422 217.7762,429.400422 204.0862,459.759422 C197.7882,473.725422 189.6092,487.359422 177.1802,496.709422 C161.6502,508.392422 142.0042,511.390422 123.2692,514.069422 C105.3572,516.632422 87.6802,519.305422 71.1902,527.150422 C57.0082,533.898422 44.2322,543.818422 33.7682,555.497422 C12.6972,579.013422 -0.2058,610.320422 -0.000277341061,642.055422 C0.4362,708.001422 61.5582,761.461422 126.1492,760.785422 C132.4402,760.720422 138.7232,760.082422 144.9172,758.972422 C142.4652,777.999422 140.7452,797.116422 139.6432,816.203422 C138.4062,837.624422 137.9262,859.084422 138.0012,880.538422 C138.0732,901.175422 138.1262,922.005422 139.7652,942.586422 C141.1382,959.829422 144.7492,978.688422 157.3222,991.536422 C167.3662,1001.79942 183.5852,1007.07142 197.6292,1003.35442 C204.2932,1001.59042 209.6272,997.703422 213.7732,992.335422 C226.3082,1014.73042 241.4102,1035.68442 258.8232,1054.55742 C301.0722,1100.35142 356.9832,1132.28542 418.2932,1144.00242 C481.3222,1156.04642 546.8792,1146.85942 603.0582,1115.45942 C658.1872,1084.64742 701.6662,1036.92242 738.8812,986.698422 C780.8032,930.121422 816.0682,868.826422 860.8762,814.360422 C866.4122,807.631422 872.0892,801.009422 877.7692,794.402422 C882.1692,789.283422 875.0562,781.916422 870.2672,786.900422 C846.6802,811.445422 826.5292,839.378422 807.1522,867.291422 C787.5802,895.482422 768.9782,924.332422 749.4262,952.537422 C713.8922,1003.79542 674.0492,1054.04142 622.3922,1089.98242 C597.1702,1107.53042 569.4342,1121.28642 539.7002,1129.24942 C509.6602,1137.29442 478.2932,1139.57542 447.3512,1136.75142 C386.1022,1131.16142 327.9532,1104.78542 283.0002,1062.92242 C239.8592,1022.74542 209.0992,970.264422 193.4532,913.541422 C191.7462,907.354422 190.2452,901.114422 188.8982,894.839422 C201.6792,881.694422 217.5592,871.439422 235.3932,865.323422 C282.4192,849.197422 333.2202,856.261422 381.7502,849.684422 C396.1962,847.726422 410.5572,844.558422 424.1582,839.488422 C427.0812,847.172422 431.3582,854.546422 434.9642,861.886422 C439.0162,870.135422 442.7162,878.725422 447.2872,886.697422 C440.1952,891.964422 433.1172,897.249422 426.0562,902.556422 C419.3442,907.601422 412.6612,912.677422 406.0212,917.816422 C401.3182,921.455422 407.5772,929.679422 412.4352,926.129422 C463.7062,888.661422 514.5992,850.750422 566.7352,814.478422 C618.3262,778.586422 670.6942,743.801422 724.0482,710.582422 C750.3742,694.191422 776.7512,677.613422 804.1882,663.127422 C830.6622,649.150422 858.6172,637.571422 888.3022,632.693422 C917.2752,627.931422 948.1162,630.026422 974.8462,642.864422 C997.3802,653.687422 1016.6932,670.961422 1029.5712,692.422422 C1045.9132,719.657422 1051.3982,753.213422 1044.6832,784.258422 C1042.3862,794.879422 1037.0772,813.681422 1023.8342,815.293422 C1017.2842,816.090422 1012.3052,810.564422 1010.2022,804.945422 C1007.3282,797.263422 1008.7422,788.465422 1009.7362,780.560422 C1010.6342,773.422422 999.4462,773.507422 998.5412,780.560422 C996.7632,794.412422 996.0412,810.561422 1007.5862,820.685422 C1017.3452,829.243422 1030.4682,827.641422 1039.6692,819.215422 C1049.7562,809.978422 1053.9792,796.103422 1056.3522,783.072422 C1059.0872,768.053422 1059.3362,752.815422 1057.2002,737.706422" id="Fill-59" fill="#2C363E" mask="url(#mask-2)"></path>
                </g>
                <path d="M758.9161,72.6248755 C738.7391,56.1148755 717.8191,40.0098755 696.2831,25.3098755 C691.3701,21.9568755 685.2561,29.7378755 689.8691,33.6228755 C709.8091,50.4178755 730.9281,66.2698755 752.2461,81.2688755 C757.3061,84.8288755 763.7631,76.5908755 758.9161,72.6248755" id="Fill-62" fill="#005E51"></path>
                <path d="M795.8172,40.0109755 C795.0582,33.3479755 785.0452,32.9489755 785.1142,40.0109755 C785.1922,47.9969755 785.8302,55.9619755 786.4402,63.9209755 C786.9752,70.9049755 797.7832,71.0589755 797.4482,63.9209755 C797.0732,55.9409755 796.7212,47.9519755 795.8172,40.0109755" id="Fill-64" fill="#005E51"></path>
                <path d="M1065.4634,141.036976 C1057.0154,146.466976 1048.6624,152.364976 1040.8784,158.714976 C1036.2434,162.495976 1042.2304,170.018976 1047.2214,166.935976 C1055.7714,161.654976 1064.0094,155.595976 1071.9064,149.386976 C1076.6534,145.653976 1070.4964,137.801976 1065.4634,141.036976" id="Fill-66" fill="#005E51"></path>
                <path d="M1138.241,178.992076 C1112.447,172.111076 1082.86,173.377076 1057.973,183.289076 C1051.729,185.776076 1054.056,195.682076 1060.825,193.633076 C1072.972,189.954076 1085.091,187.068076 1097.809,186.354076 C1110.442,185.646076 1123.044,186.752076 1135.464,189.064076 C1141.98,190.277076 1144.829,180.749076 1138.241,178.992076" id="Fill-68" fill="#005E51"></path>
                <path d="M1433.9094,1221.42358 C1432.2894,1214.04458 1435.4934,1206.63958 1442.5834,1203.55758 C1445.7924,1202.16258 1449.3064,1202.01958 1452.6254,1203.11858 C1455.3174,1204.01058 1460.8474,1207.07158 1461.3174,1210.33358 C1461.6264,1212.48458 1457.8274,1216.92358 1456.0644,1218.39558 C1452.7304,1221.17758 1448.4274,1222.52658 1444.1814,1223.11458 C1440.9424,1223.56258 1437.6644,1223.59058 1434.4064,1223.31258 C1434.2214,1222.68958 1434.0494,1222.06158 1433.9094,1221.42358 M1513.2544,1253.68558 C1498.2934,1258.14258 1482.3064,1257.79358 1467.5864,1252.54758 C1458.1804,1249.19558 1447.4384,1242.98158 1440.5234,1234.50958 C1454.7784,1233.98858 1468.6224,1228.26958 1471.9294,1213.22458 C1474.2134,1202.83158 1463.4494,1194.11558 1454.2274,1191.87258 C1443.9454,1189.37058 1433.1684,1193.68058 1427.0084,1202.18958 C1422.6374,1208.22858 1421.3994,1214.59858 1422.2534,1220.83058 C1422.0374,1220.76158 1421.8184,1220.70258 1421.6044,1220.63158 C1405.6214,1215.31658 1392.3754,1202.61358 1386.3024,1186.92958 C1383.8594,1180.61858 1373.7064,1183.14358 1375.9594,1189.78058 C1382.6594,1209.51458 1398.9304,1224.88258 1418.6244,1231.44058 C1421.1274,1232.27458 1423.8654,1232.96558 1426.7314,1233.48758 C1431.6324,1242.21258 1439.6154,1249.88358 1447.1604,1254.90658 C1467.1394,1268.20958 1493.3984,1271.97458 1516.0554,1263.84758 C1522.3524,1261.59058 1519.8414,1251.72258 1513.2544,1253.68558" id="Fill-70" fill="#005E51"></path>
                <g id="Group-74" transform="translate(1192.551089, 1488.484138)">
                    <mask id="mask-4" fill="white">
                        <use xlink:href="#path-3"></use>
                    </mask>
                    <g id="Clip-73"></g>
                    <path d="M64.6313115,54.7280377 C68.0253115,48.3240377 75.7053115,43.9280377 83.0193115,45.7900377 C90.8063115,47.7720377 92.6413115,56.8140377 89.9313115,63.5150377 C86.6103115,71.7260377 77.2413115,74.7510377 69.0323115,74.2650377 C66.7193115,74.1290377 64.4663115,73.6940377 62.2833115,73.0260377 C61.0633115,66.8510377 61.5633115,60.5170377 64.6313115,54.7280377 M123.281311,108.791038 C107.938311,113.061038 90.9563115,109.104038 78.6093115,99.1230377 C74.2033115,95.5610377 70.1053115,90.7880377 67.0413115,85.4230377 C69.1563115,85.6410377 71.3023115,85.6890377 73.4733115,85.5310377 C84.9593115,84.6990377 95.8633115,78.7160377 100.301311,67.7140377 C104.228311,57.9820377 102.537311,45.8610377 94.0543115,39.0640377 C85.9773115,32.5930377 74.4383115,33.0300377 65.6943115,37.9590377 C54.5133115,44.2620377 50.3493115,55.4250377 50.6833115,67.0910377 C48.5273115,65.5530377 46.4873115,63.8640377 44.5873115,62.1040377 C27.8593115,46.6210377 16.6093115,25.6700377 10.6373115,3.84903767 C8.79431147,-2.88696233 -1.48168853,-0.0519623258 0.181311469,6.73103767 C6.35331147,31.9160377 20.4683115,57.3970377 40.9223115,73.7810377 C44.6983115,76.8050377 48.8323115,79.4610377 53.2213115,81.4960377 C55.2633115,87.8760377 58.3993115,93.8490377 62.1933115,98.6330377 C76.9943115,117.299038 103.193311,126.497038 126.101311,119.021038 C132.550311,116.917038 129.909311,106.945038 123.281311,108.791038" id="Fill-72" fill="#005E51" mask="url(#mask-4)"></path>
                </g>
                <path d="M242.4736,215.420276 C232.1396,204.006276 217.3176,197.367276 202.3336,194.755276 C172.7336,189.595276 139.6886,201.474276 122.9626,227.069276 C107.3766,250.919276 106.0936,283.635276 122.3046,307.498276 C139.9746,333.508276 177.1246,343.900276 205.1756,329.300276 C211.2486,326.139276 206.9766,316.689276 200.6716,319.588276 C180.8086,328.721276 155.9836,323.832276 139.9106,309.372276 C122.9786,294.140276 118.9606,268.880276 126.1666,247.896276 C134.0246,225.016276 154.2736,209.941276 177.9216,206.414276 C200.2506,203.084276 231.2866,210.702276 240.1776,234.126276 C245.0756,247.031276 240.0216,261.947276 226.1246,266.205276 C213.3766,270.111276 200.3806,261.078276 198.0696,248.301276 C196.9676,242.203276 187.1896,242.098276 186.8666,248.645276 C186.3796,258.487276 186.1526,270.198276 178.5886,277.574276 C172.3006,283.706276 164.0146,282.477276 159.0596,275.519276 C154.4536,269.051276 154.7676,261.125276 159.5176,254.842276 C164.8866,247.740276 173.7276,244.366276 182.3406,243.555276 C189.2346,242.905276 187.2676,232.759276 180.5956,233.090276 C168.0546,233.714276 155.1596,240.091276 148.6016,251.100276 C142.3956,261.519276 143.4366,274.271276 151.1216,283.670276 C158.9366,293.227276 171.9206,295.894276 182.3856,288.925276 C190.0056,283.850276 193.8356,276.231276 195.8566,267.912276 C200.9466,273.379276 207.7336,277.230276 215.4006,278.392276 C230.0586,280.613276 245.1266,271.812276 251.0976,258.441276 C257.5086,244.085276 252.6836,226.698276 242.4736,215.420276" id="Fill-75" fill="#000000"></path>
                <path d="M328.6566,220.196976 C321.1846,201.233976 311.9416,182.970976 304.1786,164.111976 C296.4206,145.262976 290.3726,125.732976 282.6116,106.914976 C280.3756,101.493976 271.1916,104.160976 272.6096,110.006976 C277.4216,129.835976 285.4486,149.328976 292.9676,168.258976 C300.5646,187.386976 308.2896,207.025976 318.7956,224.769976 C322.3166,230.716976 331.2646,226.813976 328.6566,220.196976" id="Fill-77" fill="#000000"></path>
                <path d="M437.5651,170.384376 C433.9701,172.143376 430.3701,173.980376 426.7901,175.886376 C426.5711,174.194376 426.3521,172.502376 426.1401,170.810376 C425.4851,165.588376 424.8691,160.352376 424.2541,155.113376 C428.3681,153.599376 432.5031,152.136376 436.6761,150.752376 C437.6771,150.420376 438.6821,150.107376 439.6861,149.784376 C440.3481,155.554376 441.0181,161.320376 441.6451,167.083376 C441.6921,167.513376 441.7351,167.944376 441.7811,168.375376 C440.3731,169.039376 438.9631,169.700376 437.5651,170.384376 M486.8171,151.952376 C475.0661,154.882376 463.5901,158.893376 452.4251,163.619376 C451.8001,157.897376 451.2081,152.166376 450.6051,146.431376 C462.1981,143.035376 473.8901,140.033376 485.5681,136.876376 C492.0381,135.127376 490.6711,125.093376 483.8191,126.388376 C472.2051,128.584376 460.7221,131.662376 449.3771,135.116376 C448.4931,127.250376 447.5231,119.397376 446.3211,111.589376 C445.2921,104.901376 435.7031,106.782376 436.1341,113.288376 C436.6921,121.720376 437.5151,130.145376 438.4291,138.563376 C436.8971,139.060376 435.3661,139.558376 433.8391,140.062376 C430.1971,141.267376 426.5521,142.502376 422.9111,143.767376 C421.6141,132.974376 420.2201,122.193376 418.4101,111.502376 C417.2641,104.736376 407.5061,106.577376 408.0371,113.231376 C408.9581,124.755376 410.3591,136.262376 411.8471,147.755376 C402.7721,151.145376 393.8031,154.828376 385.1221,159.012376 C378.9021,162.009376 383.2491,171.238376 389.6161,168.702376 C397.5391,165.548376 405.4201,162.340376 413.3471,159.252376 C413.9331,163.722376 414.5141,168.191376 415.0651,172.658376 C415.4421,175.715376 415.8051,178.777376 416.1651,181.841376 C407.9691,186.672376 400.0331,191.953376 392.7301,197.819376 C387.2751,202.200376 393.9511,209.669376 399.5341,205.992376 C405.5561,202.026376 411.5511,198.117376 417.6241,194.353376 C419.0951,206.933376 420.6391,219.511376 422.7371,231.976376 C423.8881,238.816376 433.7691,236.956376 433.2251,230.226376 C432.0831,216.104376 430.2331,202.014376 428.3701,187.943376 C433.1431,185.215376 437.9951,182.601376 442.9971,180.175376 C444.3521,193.738376 445.6681,207.338376 447.8211,220.767376 C448.9171,227.602376 458.6141,225.659376 458.2161,219.033376 C457.3411,204.423376 455.4851,189.830376 453.7581,175.270376 C465.5591,170.194376 477.6661,165.924376 489.9021,161.931376 C495.5091,160.102376 492.5701,150.518376 486.8171,151.952376" id="Fill-79" fill="#000000"></path>
                <path d="M343.1304,248.196876 C337.8994,244.945876 330.7824,247.467876 328.6404,253.187876 C327.7744,255.499876 327.9754,258.182876 329.0014,260.434876 C329.1304,260.829876 329.3134,261.213876 329.5734,261.573876 C329.6844,261.726876 329.8044,261.864876 329.9204,262.011876 C330.9584,263.487876 332.3244,264.590876 333.9194,265.244876 C334.9804,265.722876 336.1454,266.018876 337.4194,266.103876 C340.0544,266.279876 342.9234,265.317876 344.7844,263.399876 C348.9484,259.109876 348.3304,251.428876 343.1304,248.196876" id="Fill-81" fill="#000000"></path>
                <path d="M798.6297,1176.52078 C797.9457,1183.29978 788.0417,1183.26478 783.6077,1181.20378 C776.1617,1177.74178 770.7247,1170.28678 765.6137,1164.12578 C754.4937,1150.72178 744.5117,1136.38878 735.5927,1121.43278 C717.7607,1091.53078 704.5637,1059.00478 696.5677,1025.11778 C692.6237,1008.40578 685.0327,981.484776 703.9847,970.950776 C710.0717,967.567776 704.7197,958.749776 698.5827,961.709776 C678.1347,971.569776 679.3737,997.012776 682.9907,1015.81378 C686.9047,1036.15878 692.7057,1056.13878 700.2317,1075.44078 C715.1487,1113.69878 736.6037,1151.06678 764.7727,1181.17978 C771.8197,1188.71378 781.2207,1195.56078 792.0747,1194.20878 C801.7487,1193.00378 809.4247,1186.39878 810.4107,1176.52078 C811.1637,1168.97978 799.3847,1169.03978 798.6297,1176.52078" id="Fill-83" fill="#009F70"></path>
                <path d="M768.462,1229.83528 C765.86,1236.70628 756.43,1237.70128 750.399,1235.66328 C741.251,1232.57228 734.397,1224.35228 728.152,1217.39728 C714.908,1202.64728 703.09,1186.64628 692.783,1169.71628 C672.198,1135.90428 657.801,1098.36628 650.808,1059.38528 C647.279,1039.71028 646.105,1016.94528 659.026,1000.25828 C663.141,994.942276 656.083,987.334276 651.425,992.656276 C637.455,1008.62028 635.83,1030.80228 638.249,1051.01128 C640.943,1073.51628 646.953,1095.81428 654.729,1117.06928 C670.267,1159.54128 694.213,1199.96728 725.798,1232.51428 C733.81,1240.77028 743.908,1248.56328 755.958,1248.59639 C766.561,1248.62528 776.168,1243.04428 779.98,1233.01028 C782.713,1225.82028 771.163,1222.70028 768.462,1229.83528" id="Fill-85" fill="#009F70"></path>
                <path d="M977.5826,487.351376 C975.4156,480.996376 969.5216,476.818376 963.5676,474.338376 C949.9176,468.652376 933.5796,468.889376 919.8886,474.304376 C913.1046,476.987376 904.6736,480.855376 901.8336,488.129376 C899.9046,493.071376 901.3196,498.804376 905.1346,501.815376 C905.9166,503.535376 906.9836,505.148376 908.3146,506.555376 C913.2326,511.752376 920.7346,513.775376 927.5666,514.852376 C941.6586,517.074376 960.6046,515.904376 971.9096,506.062376 C977.2286,501.432376 979.9096,494.177376 977.5826,487.351376" id="Fill-87" fill="#CAB0CE"></path>
            </g>
            <text id="NO" font-family="ImaginaryFriendBB-Bold, ImaginaryFriend BB" font-size="144.7434" font-weight="bold" fill="#009F70">
                <tspan x="1328.3672" y="317.810382">NO</tspan>
            </text>
            <text id="DATA" font-family="ImaginaryFriendBB-Bold, ImaginaryFriend BB" font-size="144.7434" font-weight="bold" letter-spacing="11.0682418" fill="#009F70">
                <tspan x="1264.24587" y="491.502462">D</tspan>
                <tspan x="1355.35722" y="491.502462" letter-spacing="-0.077">A</tspan>
                <tspan x="1427.65192" y="491.502462" letter-spacing="3.6863284">T</tspan>
                <tspan x="1492.85419" y="491.502462" letter-spacing="-0.077">A</tspan>
            </text>
        </g>
    </g>
</svg>