<?xml version="1.0" encoding="UTF-8"?>
<svg width="316px" height="347px" viewBox="0 0 316 347" version="1.1" xmlns="http://www.w3.org/2000/svg" xmlns:xlink="http://www.w3.org/1999/xlink">
    <title>Combined Shape Copy</title>
    <g id="Page-1" stroke="none" stroke-width="1" fill="none" fill-rule="evenodd">
        <g id="Update-Copy-5" transform="translate(-562.000000, -81.000000)" fill="#605cb8">
            <path d="M767.006979,92.0694427 C769.53256,90.9527947 772.48517,92.0949604 773.601818,94.6205412 L876.893457,328.240608 C877.175039,328.877476 877.320489,329.566138 877.320489,330.262478 C877.320489,333.023901 875.081913,335.262478 872.320489,335.262478 L764.305688,335.262478 C763.702283,335.262478 763.103862,335.153256 762.539363,334.940094 C759.955987,333.96458 758.652557,331.079529 759.628071,328.496153 L775.980005,285.192636 C776.71481,283.246713 778.577585,281.958961 780.657622,281.958961 L787.075027,281.958961 C787.888813,281.958961 788.6903,281.76033 789.409907,281.380311 C791.851751,280.090793 792.785896,277.065926 791.496377,274.624081 L773.839863,241.189541 C773.317898,240.201143 772.479797,239.416146 771.459395,238.959905 C768.938483,237.832757 765.981145,238.962626 764.853997,241.483538 L682.840234,424.910614 C682.344298,426.019794 681.461451,426.910442 680.356677,427.416116 C677.845778,428.565398 674.878616,427.461589 673.729334,424.95069 L646.098886,364.584925 C645.501566,363.279927 645.493826,361.781174 646.077635,360.470077 L764.461214,94.6085218 C764.965607,93.4757736 765.872908,92.5708553 767.006979,92.0694427 Z M666.819852,82.2092704 C669.355619,81.1159518 672.297574,82.2852875 673.390893,84.8210548 L701.08129,149.044243 C701.62533,150.306051 701.626102,151.736144 701.083426,152.998539 L624.388011,331.410382 C623.59888,333.246089 621.792598,334.435714 619.794462,334.435714 L567.503719,334.435714 C566.84242,334.435714 566.18769,334.304532 565.577437,334.049762 C563.029169,332.985906 561.825815,330.057701 562.889671,327.509432 L664.185432,84.8744012 C664.684867,83.678098 665.629417,82.7225367 666.819852,82.2092704 Z" id="Combined-Shape-Copy"></path>
        </g>
    </g>
</svg>